<?xml version="1.0" encoding="utf-8"?>
<!-- Generator: Adobe Illustrator 25.2.3, SVG Export Plug-In . SVG Version: 6.00 Build 0)  -->
<svg version="1.1" id="Camada_1" xmlns="http://www.w3.org/2000/svg" xmlns:xlink="http://www.w3.org/1999/xlink" x="0px" y="0px"
	 viewBox="0 0 500 500" style="enable-background:new 0 0 500 500;" xml:space="preserve">
<style type="text/css">
	.st0{fill:#FFFFFF;}
</style>
<g>
	<circle class="st0" cx="250" cy="250.01" r="97.89"/>
	<path class="st0" d="M252.27,446.44l-0.01-0.53l0.53-0.01l0.01,0.53L252.27,446.44z M245.34,446.4l-0.54-0.01l0.02-0.53l0.53,0.01
		L245.34,446.4z M259.72,446.21l-0.03-0.53l0.53-0.03l0.03,0.53L259.72,446.21z M237.89,446.08l-0.53-0.03l0.04-0.53l0.53,0.03
		L237.89,446.08z M267.16,445.71l-0.04-0.53l0.53-0.05l0.05,0.53L267.16,445.71z M230.46,445.49l-0.53-0.05l0.06-0.53l0.53,0.05
		L230.46,445.49z M274.58,444.93l-0.06-0.53l0.53-0.07l0.07,0.53L274.58,444.93z M223.05,444.62l-0.53-0.07l0.07-0.53l0.53,0.07
		L223.05,444.62z M281.96,443.86l-0.08-0.53l0.52-0.09l0.09,0.53L281.96,443.86z M215.69,443.46l-0.52-0.09l0.09-0.52l0.52,0.09
		L215.69,443.46z M289.3,442.52l-0.11-0.52l0.52-0.11l0.11,0.52L289.3,442.52z M208.37,442.03l-0.52-0.11l0.11-0.52l0.52,0.11
		L208.37,442.03z M296.57,440.89l-0.12-0.52l0.52-0.13l0.13,0.52L296.57,440.89z M201.11,440.32l-0.52-0.13l0.13-0.51l0.51,0.13
		L201.11,440.32z M303.78,438.99l-0.14-0.51l0.51-0.15l0.15,0.51L303.78,438.99z M193.92,438.33l-0.51-0.15l0.15-0.51l0.51,0.15
		L193.92,438.33z M310.92,436.82l-0.16-0.51l0.5-0.17l0.17,0.51L310.92,436.82z M186.79,436.06l-0.51-0.17l0.17-0.5l0.51,0.17
		L186.79,436.06z M317.96,434.37l-0.18-0.5l0.5-0.18l0.19,0.5L317.96,434.37z M179.76,433.52l-0.5-0.19l0.2-0.49l0.5,0.19
		L179.76,433.52z M324.91,431.66l-0.2-0.49l0.49-0.2l0.2,0.49L324.91,431.66z M172.83,430.71l-0.49-0.21l0.21-0.49l0.49,0.21
		L172.83,430.71z M331.73,428.69l-0.22-0.49l0.48-0.22l0.22,0.48L331.73,428.69z M166.01,427.64l-0.48-0.23l0.23-0.48l0.48,0.23
		L166.01,427.64z M338.43,425.46l-0.24-0.48l0.47-0.24l0.24,0.47L338.43,425.46z M159.32,424.32l-0.47-0.25l0.25-0.47l0.47,0.25
		L159.32,424.32z M345.01,421.98l-0.26-0.47l0.46-0.26l0.26,0.46L345.01,421.98z M152.76,420.74l-0.46-0.27l0.27-0.46l0.46,0.26
		L152.76,420.74z M351.45,418.26l-0.28-0.46l0.45-0.27l0.28,0.46L351.45,418.26z M146.35,416.91l-0.45-0.28l0.28-0.45l0.45,0.28
		L146.35,416.91z M357.75,414.28l-0.29-0.45l0.44-0.29l0.29,0.44L357.75,414.28z M140.09,412.85l-0.44-0.3l0.3-0.44l0.44,0.3
		L140.09,412.85z M363.9,410.08l-0.31-0.43l0.43-0.31l0.31,0.43L363.9,410.08z M133.98,408.55l-0.43-0.32l0.32-0.43l0.43,0.31
		L133.98,408.55z M369.88,405.64l-0.32-0.42l0.42-0.32l0.33,0.42L369.88,405.64z M128.05,404.02l-0.42-0.33l0.33-0.41l0.41,0.33
		L128.05,404.02z M375.7,400.98l-0.34-0.41l0.41-0.34l0.34,0.41L375.7,400.98z M122.29,399.28l-0.41-0.35l0.35-0.4l0.4,0.35
		L122.29,399.28z M381.33,396.1l-0.36-0.4l0.39-0.35l0.36,0.39L381.33,396.1z M116.72,394.32l-0.39-0.36l0.36-0.39l0.39,0.36
		L116.72,394.32z M386.77,391.01l-0.37-0.38l0.38-0.37l0.37,0.38L386.77,391.01z M111.34,389.16l-0.38-0.38l0.38-0.38l0.38,0.38
		L111.34,389.16z M392.03,385.71l-0.38-0.37l0.37-0.38l0.39,0.37L392.03,385.71z M106.15,383.8l-0.36-0.39l0.39-0.36l0.36,0.39
		L106.15,383.8z M397.08,380.22l-0.4-0.35l0.35-0.4l0.4,0.35L397.08,380.22z M101.18,378.24l-0.35-0.4l0.4-0.35l0.35,0.4
		L101.18,378.24z M401.92,374.55l-0.41-0.34l0.34-0.41l0.41,0.34L401.92,374.55z M96.42,372.51l-0.33-0.42l0.42-0.33l0.33,0.42
		L96.42,372.51z M406.54,368.69l-0.42-0.32l0.32-0.42l0.42,0.32L406.54,368.69z M91.88,366.6l-0.31-0.43l0.43-0.32l0.32,0.43
		L91.88,366.6z M410.95,362.66l-0.44-0.3l0.31-0.44l0.44,0.3L410.95,362.66z M87.57,360.52l-0.3-0.44l0.44-0.3l0.3,0.44
		L87.57,360.52z M415.11,356.47l-0.45-0.29l0.29-0.45l0.45,0.29L415.11,356.47z M83.49,354.29l-0.28-0.45l0.45-0.28l0.28,0.45
		L83.49,354.29z M419.05,350.12l-0.46-0.27l0.27-0.46l0.46,0.27L419.05,350.12z M79.65,347.91l-0.26-0.46l0.46-0.26l0.26,0.46
		L79.65,347.91z M422.74,343.63l-0.47-0.25l0.25-0.47l0.47,0.25L422.74,343.63z M76.06,341.4l-0.25-0.47l0.47-0.25l0.25,0.47
		L76.06,341.4z M426.18,336.99l-0.48-0.24l0.24-0.48l0.48,0.23L426.18,336.99z M72.72,334.75l-0.23-0.48l0.48-0.23l0.23,0.48
		L72.72,334.75z M429.36,330.23l-0.49-0.22l0.22-0.49l0.49,0.21L429.36,330.23z M69.64,327.98l-0.21-0.49l0.49-0.21l0.21,0.49
		L69.64,327.98z M432.29,323.35l-0.49-0.2l0.2-0.5l0.49,0.2L432.29,323.35z M66.81,321.1l-0.19-0.5l0.5-0.19l0.19,0.5L66.81,321.1z
		 M434.95,316.36l-0.5-0.18l0.18-0.5l0.5,0.18L434.95,316.36z M64.25,314.1l-0.17-0.5l0.5-0.17l0.17,0.5L64.25,314.1z
		 M437.34,309.27l-0.51-0.16l0.16-0.51l0.51,0.16L437.34,309.27z M61.95,307l-0.15-0.51l0.51-0.15l0.15,0.51L61.95,307z
		 M439.45,302.12l-0.51-0.14l0.14-0.51l0.51,0.14L439.45,302.12z M59.93,299.83l-0.13-0.51l0.51-0.13l0.13,0.51L59.93,299.83z
		 M441.29,294.89l-0.52-0.12l0.12-0.52l0.52,0.12L441.29,294.89z M58.18,292.58l-0.11-0.52l0.52-0.11l0.11,0.52L58.18,292.58z
		 M442.85,287.6l-0.52-0.1l0.1-0.52l0.52,0.1L442.85,287.6z M56.71,285.27l-0.09-0.52l0.52-0.09l0.09,0.52L56.71,285.27z
		 M444.12,280.25l-0.53-0.09l0.08-0.52l0.53,0.08L444.12,280.25z M55.52,277.9l-0.07-0.53l0.53-0.07l0.07,0.53L55.52,277.9z
		 M445.13,272.81l-0.53-0.01l0.06-0.53l0.53,0.06L445.13,272.81z M54.61,270.5l-0.05-0.53l0.53-0.05l0.05,0.53L54.61,270.5z
		 M445.84,265.44l-0.53-0.04l0.04-0.53l0.53,0.04L445.84,265.44z M53.98,263.07l-0.03-0.53l0.53-0.03l0.03,0.53L53.98,263.07z
		 M446.28,257.99l-0.53-0.02l0.02-0.53l0.53,0.02L446.28,257.99z M53.63,255.62l-0.01-0.53l0.53-0.01l0.01,0.53L53.63,255.62z
		 M446.44,250.54l-0.53,0l0-0.53h0.53L446.44,250.54z M54.09,248.17l-0.53,0l0.01-0.53h0.53L54.09,248.17z M445.88,246.75
		l-0.01-0.53l0.53-0.01l0.01,0.53L445.88,246.75z M54.3,240.73l-0.53-0.02l0.03-0.53l0.53,0.03L54.3,240.73z M445.62,239.32
		l-0.03-0.53l0.53-0.03l0.03,0.53L445.62,239.32z M54.79,233.31l-0.53-0.05l0.05-0.53l0.53,0.05L54.79,233.31z M445.08,231.9
		l-0.05-0.53l0.53-0.05l0.05,0.53L445.08,231.9z M55.55,225.92l-0.53-0.06l0.06-0.48l0.53,0.01L55.55,225.92z M444.26,224.51
		l-0.07-0.53l0.53-0.07l0.07,0.53L444.26,224.51z M56.6,218.55l-0.53-0.08l0.09-0.53l0.53,0.09L56.6,218.55z M443.16,217.15
		l-0.09-0.52l0.52-0.09l0.09,0.53L443.16,217.15z M57.92,211.24l-0.52-0.11l0.11-0.52l0.52,0.11L57.92,211.24z M441.79,209.84
		l-0.11-0.52l0.52-0.11l0.11,0.52L441.79,209.84z M59.52,203.97l-0.52-0.12l0.12-0.52l0.52,0.12L59.52,203.97z M440.13,202.59
		l-0.13-0.52l0.52-0.13l0.13,0.52L440.13,202.59z M61.4,196.78l-0.51-0.14l0.15-0.51l0.51,0.15L61.4,196.78z M438.2,195.41
		l-0.15-0.51l0.51-0.15l0.15,0.51L438.2,195.41z M63.56,189.66l-0.51-0.16l0.17-0.51l0.51,0.17L63.56,189.66z M435.99,188.31
		l-0.17-0.5l0.5-0.17l0.17,0.51L435.99,188.31z M65.99,182.6l-0.5-0.18l0.18-0.5l0.5,0.18L65.99,182.6z M433.52,181.29l-0.19-0.5
		l0.5-0.19l0.19,0.5L433.52,181.29z M68.69,175.65l-0.49-0.2l0.2-0.49l0.49,0.2L68.69,175.65z M430.78,174.4l-0.21-0.49l0.49-0.21
		l0.21,0.49L430.78,174.4z M71.65,168.81l-0.48-0.22l0.22-0.49l0.48,0.22L71.65,168.81z M427.79,167.61l-0.22-0.48l0.48-0.23
		l0.22,0.48L427.79,167.61z M74.87,162.09l-0.47-0.24l0.24-0.48l0.47,0.24L74.87,162.09z M424.54,160.94l-0.24-0.47l0.47-0.24
		l0.24,0.47L424.54,160.94z M78.35,155.5l-0.47-0.26l0.26-0.47l0.46,0.26L78.35,155.5z M421.04,154.4l-0.26-0.46l0.46-0.26
		l0.26,0.46L421.04,154.4z M82.07,149.05l-0.46-0.27l0.28-0.46l0.46,0.28L82.07,149.05z M417.29,148l-0.28-0.45l0.45-0.28l0.28,0.45
		L417.29,148z M86.03,142.74l-0.45-0.29l0.29-0.45l0.44,0.29L86.03,142.74z M413.29,141.73l-0.29-0.44l0.44-0.3l0.29,0.44
		L413.29,141.73z M90.23,136.59l-0.43-0.31l0.31-0.43l0.43,0.31L90.23,136.59z M409.07,135.63l-0.31-0.43l0.43-0.31l0.31,0.43
		L409.07,135.63z M94.66,130.61l-0.42-0.33l0.33-0.42l0.42,0.33L94.66,130.61z M404.61,129.68l-0.33-0.42l0.42-0.33l0.33,0.42
		L404.61,129.68z M99.31,124.8l-0.41-0.34l0.34-0.41l0.41,0.34L99.31,124.8z M399.93,123.91l-0.34-0.41l0.41-0.34l0.34,0.41
		L399.93,123.91z M104.18,119.17l-0.4-0.36l0.36-0.4l0.4,0.36L104.18,119.17z M395.04,118.31l-0.36-0.39l0.39-0.36l0.36,0.39
		L395.04,118.31z M109.25,113.73l-0.38-0.37l0.37-0.38l0.38,0.37L109.25,113.73z M389.94,112.9l-0.37-0.38l0.38-0.37l0.37,0.38
		L389.94,112.9z M114.52,108.49l-0.37-0.38l0.39-0.37l0.37,0.39L114.52,108.49z M384.63,107.69l-0.39-0.37l0.37-0.39l0.39,0.37
		L384.63,107.69z M119.99,103.45l-0.35-0.4l0.4-0.35l0.35,0.4L119.99,103.45z M379.13,102.68l-0.4-0.35l0.35-0.4l0.4,0.35
		L379.13,102.68z M125.64,98.62l-0.34-0.41l0.41-0.34l0.34,0.41L125.64,98.62z M373.45,97.88l-0.41-0.33l0.33-0.41l0.41,0.33
		L373.45,97.88z M131.47,94.01l-0.32-0.42l0.42-0.32l0.32,0.42L131.47,94.01z M367.58,93.29l-0.43-0.32l0.32-0.43l0.43,0.32
		L367.58,93.29z M137.46,89.62l-0.31-0.44l0.43-0.3l0.31,0.44L137.46,89.62z M361.55,88.94l-0.44-0.3l0.3-0.44l0.44,0.3
		L361.55,88.94z M143.62,85.46l-0.29-0.45l0.45-0.29l0.29,0.45L143.62,85.46z M355.35,84.81l-0.45-0.29l0.29-0.45l0.45,0.29
		L355.35,84.81z M149.93,81.54l-0.27-0.46l0.46-0.27l0.27,0.46L149.93,81.54z M349,80.92l-0.46-0.27l0.27-0.46l0.46,0.27L349,80.92z
		 M156.38,77.87l-0.25-0.47l0.47-0.25l0.25,0.47L156.38,77.87z M342.51,77.27l-0.47-0.25l0.25-0.47l0.47,0.25L342.51,77.27z
		 M162.96,74.44l-0.24-0.48l0.48-0.24l0.24,0.48L162.96,74.44z M335.88,73.87l-0.48-0.23l0.23-0.48l0.48,0.23L335.88,73.87z
		 M169.67,71.27l-0.22-0.49l0.48-0.22l0.22,0.49L169.67,71.27z M329.12,70.73l-0.49-0.21l0.21-0.49l0.49,0.21L329.12,70.73z
		 M176.48,68.35l-0.2-0.49l0.49-0.2l0.2,0.49L176.48,68.35z M322.24,67.85l-0.5-0.2l0.2-0.5l0.5,0.2L322.24,67.85z M183.43,65.7
		l-0.18-0.5l0.5-0.18l0.18,0.5L183.43,65.7z M315.26,65.23l-0.5-0.18l0.18-0.5l0.5,0.18L315.26,65.23z M190.47,63.3l-0.16-0.51
		l0.51-0.16l0.16,0.51L190.47,63.3z M308.17,62.88l-0.51-0.16l0.16-0.51l0.51,0.16L308.17,62.88z M197.6,61.18l-0.14-0.51l0.51-0.14
		l0.14,0.51L197.6,61.18z M301.03,60.81l-0.51-0.14l0.14-0.51l0.51,0.14L301.03,60.81z M204.8,59.33l-0.12-0.52l0.52-0.12l0.12,0.52
		L204.8,59.33z M293.81,59.01l-0.52-0.12l0.12-0.52l0.52,0.12L293.81,59.01z M212.07,57.76l-0.1-0.52l0.52-0.1l0.1,0.52
		L212.07,57.76z M286.53,57.5l-0.52-0.1l0.1-0.52l0.52,0.1L286.53,57.5z M219.4,56.47l-0.08-0.53l0.53-0.08l0.08,0.53L219.4,56.47z
		 M279.2,56.26l-0.53-0.08l0.08-0.53l0.53,0.08L279.2,56.26z M226.77,55.46l-0.06-0.53l0.47-0.06l0.12,0.52L226.77,55.46z
		 M271.82,55.3l-0.53-0.06l0.06-0.53l0.53,0.06L271.82,55.3z M234.17,54.73l-0.04-0.53l0.53-0.04l0.04,0.53L234.17,54.73z
		 M264.42,54.62l-0.53-0.04l0.04-0.53l0.53,0.04L264.42,54.62z M241.59,54.27l-0.02-0.53l0.53-0.02l0.02,0.53L241.59,54.27z
		 M256.99,54.22l-0.53-0.02l0.02-0.53l0.53,0.02L256.99,54.22z M249.02,54.1l0-0.53l0.53,0l0,0.53L249.02,54.1z"/>
	<path class="st0" d="M373.12,152.11c-12.62-12.62-12.62-12.62-25.23-25.23c6.97-6.97,18.26-6.97,25.23,0
		C380.09,133.85,380.09,145.14,373.12,152.11z"/>
	<path class="st0" d="M347.9,127.64l24.47,24.47c-3.22,3.03-7.41,4.7-11.86,4.7c-4.62,0-8.97-1.8-12.24-5.07
		c-3.27-3.27-5.07-7.62-5.07-12.24C343.2,135.05,344.86,130.86,347.9,127.64 M347.89,126.88c-6.97,6.97-6.97,18.26,0,25.23
		c3.48,3.48,8.05,5.23,12.62,5.23c4.57,0,9.13-1.74,12.62-5.23C360.51,139.5,360.51,139.5,347.89,126.88L347.89,126.88z"/>
	<path class="st0" d="M406.28,267.85c0-17.84,0-17.84,0-35.68c9.85,0,17.84,7.99,17.84,17.84
		C424.12,259.86,416.13,267.85,406.28,267.85z"/>
	<path class="st0" d="M405.75,232.7v34.6c-9.3-0.28-16.78-7.94-16.78-17.3S396.45,232.99,405.75,232.7 M406.28,232.16
		c-9.85,0-17.84,7.99-17.84,17.84c0,9.85,7.99,17.84,17.84,17.84C406.28,250.01,406.28,250.01,406.28,232.16L406.28,232.16z"/>
	<path class="st0" d="M347.89,373.13c12.62-12.62,12.62-12.62,25.23-25.23c6.97,6.97,6.97,18.26,0,25.23
		C366.15,380.1,354.86,380.1,347.89,373.13z"/>
	<path class="st0" d="M360.51,343.21c4.45,0,8.64,1.66,11.86,4.7l-24.47,24.47c-3.03-3.22-4.7-7.41-4.7-11.86
		c0-4.62,1.8-8.97,5.07-12.24C351.54,345.01,355.88,343.21,360.51,343.21 M360.51,342.67c-4.57,0-9.13,1.74-12.62,5.23
		c-6.97,6.97-6.97,18.26,0,25.23c12.62-12.62,12.62-12.62,25.23-25.23C369.64,344.42,365.07,342.67,360.51,342.67L360.51,342.67z"/>
	<path class="st0" d="M232.15,406.29c17.84,0,17.84,0,35.68,0c0,9.85-7.99,17.84-17.84,17.84
		C240.14,424.13,232.15,416.14,232.15,406.29z"/>
	<path class="st0" d="M250,388.98c9.37,0,17.02,7.48,17.3,16.78h-34.6C232.98,396.46,240.63,388.98,250,388.98 M250,388.45
		c-9.85,0-17.84,7.99-17.84,17.84c17.84,0,17.84,0,35.68,0C267.84,396.44,259.85,388.45,250,388.45L250,388.45z"/>
	<path class="st0" d="M126.87,347.9c12.62,12.62,12.62,12.62,25.23,25.23c-6.97,6.97-18.26,6.97-25.23,0
		C119.9,366.16,119.9,354.87,126.87,347.9z"/>
	<path class="st0" d="M139.49,343.21c4.62,0,8.97,1.8,12.24,5.07c3.27,3.27,5.07,7.62,5.07,12.24c0,4.45-1.66,8.64-4.7,11.86
		l-24.47-24.47C130.85,344.87,135.04,343.21,139.49,343.21 M139.49,342.67c-4.57,0-9.13,1.74-12.62,5.23
		c12.62,12.62,12.62,12.62,25.23,25.23c6.97-6.97,6.97-18.26,0-25.23C148.62,344.42,144.05,342.67,139.49,342.67L139.49,342.67z"/>
	<path class="st0" d="M93.71,232.16c0,17.84,0,17.84,0,35.68c-9.85,0-17.84-7.99-17.84-17.84
		C75.87,240.15,83.86,232.16,93.71,232.16z"/>
	<path class="st0" d="M94.24,232.7c9.3,0.28,16.78,7.94,16.78,17.3s-7.48,17.02-16.78,17.3V232.7 M93.71,232.16
		c0,17.84,0,17.84,0,35.68c9.85,0,17.84-7.99,17.84-17.84C111.55,240.15,103.57,232.16,93.71,232.16L93.71,232.16z"/>
	<path class="st0" d="M152.1,126.88c-12.62,12.62-12.62,12.62-25.23,25.23c-6.97-6.97-6.97-18.26,0-25.23
		S145.13,119.91,152.1,126.88z"/>
	<path class="st0" d="M152.1,127.64c3.03,3.22,4.7,7.41,4.7,11.86c0,4.62-1.8,8.97-5.07,12.24c-3.27,3.27-7.62,5.07-12.24,5.07
		c-4.45,0-8.64-1.66-11.86-4.7L152.1,127.64 M152.1,126.88c-12.62,12.62-12.62,12.62-25.23,25.23c3.48,3.48,8.05,5.23,12.62,5.23
		s9.13-1.74,12.62-5.23C159.07,145.14,159.07,133.85,152.1,126.88L152.1,126.88z"/>
	<path class="st0" d="M259.3,78.5v30.39c5.1-3.13,8.51-8.76,8.51-15.19S264.4,81.63,259.3,78.5z M250,75.88
		c-2.32,0-4.54,0.44-6.57,1.26c0.08,0.18,0.12,0.37,0.12,0.57v7.41l12.9,13.09v-20.5c0-0.2,0.04-0.39,0.12-0.57
		C254.54,76.32,252.32,75.88,250,75.88z M256.45,109.68v-7.41l-12.9-13.09v20.5c0,0.2-0.04,0.39-0.12,0.57
		c2.03,0.81,4.25,1.26,6.57,1.26s4.54-0.45,6.57-1.26C256.49,110.07,256.45,109.88,256.45,109.68z M232.19,93.7
		c0,6.43,3.41,12.06,8.51,15.19V78.5C235.6,81.63,232.19,87.27,232.19,93.7z"/>
</g>
</svg>
