<?xml version="1.0" encoding="utf-8"?>
<!-- Generator: Adobe Illustrator 25.2.3, SVG Export Plug-In . SVG Version: 6.00 Build 0)  -->
<svg version="1.1" id="Camada_1" xmlns="http://www.w3.org/2000/svg" xmlns:xlink="http://www.w3.org/1999/xlink" x="0px" y="0px"
	 viewBox="0 0 500 500" style="enable-background:new 0 0 500 500;" xml:space="preserve">
<style type="text/css">
	.st0{fill:#FFFFFF;}
</style>
<g>
	<rect x="53.95" y="249.33" class="st0" width="392.11" height="1.36"/>
	<circle class="st0" cx="250.12" cy="250.01" r="56.91"/>
	<path class="st0" d="M252.28,436.35l-0.01-0.53l0.5-0.01l0.01,0.53L252.28,436.35z M245.71,436.31l-0.51-0.01l0.02-0.53l0.5,0.01
		L245.71,436.31z M259.35,436.14l-0.03-0.53l0.5-0.03l0.03,0.53L259.35,436.14z M238.64,436.02l-0.51-0.03l0.03-0.53l0.5,0.03
		L238.64,436.02z M266.41,435.66l-0.05-0.53l0.5-0.04l0.05,0.53L266.41,435.66z M231.59,435.46l-0.5-0.05l0.06-0.53l0.5,0.05
		L231.59,435.46z M273.44,434.92l-0.06-0.53l0.5-0.06l0.07,0.53L273.44,434.92z M224.56,434.63l-0.47-0.07l0.04-0.53l0.5,0.07
		L224.56,434.63z M280.45,433.91l-0.09-0.53l0.5-0.08l0.09,0.53L280.45,433.91z M217.57,433.53l-0.5-0.09l0.1-0.52l0.5,0.09
		L217.57,433.53z M287.4,432.63l-0.1-0.52l0.49-0.1l0.11,0.52L287.4,432.63z M210.63,432.17l-0.5-0.11l0.11-0.52l0.49,0.11
		L210.63,432.17z M294.31,431.09l-0.12-0.52l0.49-0.12l0.13,0.52L294.31,431.09z M203.74,430.55l-0.49-0.13l0.13-0.52l0.49,0.13
		L203.74,430.55z M301.15,429.29l-0.15-0.51l0.48-0.14l0.15,0.51L301.15,429.29z M196.93,428.66l-0.48-0.14l0.15-0.51l0.48,0.14
		L196.93,428.66z M307.92,427.23l-0.16-0.51l0.48-0.16l0.17,0.51L307.92,427.23z M190.16,426.51l-0.48-0.16l0.17-0.5l0.48,0.16
		L190.16,426.51z M314.6,424.91l-0.18-0.5l0.47-0.17l0.19,0.5L314.6,424.91z M183.49,424.1l-0.47-0.18l0.19-0.5l0.47,0.18
		L183.49,424.1z M321.19,422.33l-0.2-0.49l0.46-0.19l0.21,0.49L321.19,422.33z M176.92,421.43l-0.47-0.2l0.21-0.49l0.46,0.2
		L176.92,421.43z M327.66,419.52l-0.22-0.48l0.46-0.21l0.22,0.48L327.66,419.52z M170.45,418.52l-0.46-0.22l0.23-0.48l0.46,0.22
		L170.45,418.52z M334.02,416.46l-0.24-0.48l0.45-0.23l0.24,0.47L334.02,416.46z M164.1,415.37l-0.45-0.24l0.25-0.47l0.45,0.24
		L164.1,415.37z M340.26,413.16l-0.26-0.46l0.44-0.24l0.26,0.46L340.26,413.16z M157.88,411.97l-0.44-0.25l0.27-0.46l0.44,0.25
		L157.88,411.97z M346.37,409.62l-0.28-0.46l0.43-0.26l0.28,0.46L346.37,409.62z M151.8,408.34l-0.43-0.27l0.29-0.45l0.43,0.27
		L151.8,408.34z M352.35,405.85l-0.29-0.45l0.42-0.28l0.29,0.44L352.35,405.85z M145.85,404.49l-0.42-0.28l0.3-0.44l0.42,0.28
		L145.85,404.49z M358.18,401.86l-0.31-0.43l0.41-0.29l0.31,0.43L358.18,401.86z M140.06,400.41l-0.41-0.3l0.32-0.43l0.41,0.3
		L140.06,400.41z M363.85,397.65l-0.32-0.42l0.4-0.31l0.32,0.42L363.85,397.65z M134.44,396.12l-0.4-0.31l0.33-0.42l0.39,0.31
		L134.44,396.12z M369.37,393.23l-0.34-0.41l0.39-0.32l0.34,0.41L369.37,393.23z M128.97,391.62l-0.38-0.33l0.35-0.4l0.38,0.33
		L128.97,391.62z M374.71,388.6l-0.36-0.39l0.38-0.34l0.36,0.4L374.71,388.6z M123.69,386.91l-0.37-0.34l0.36-0.39l0.37,0.34
		L123.69,386.91z M379.88,383.77l-0.37-0.38l0.36-0.35l0.37,0.38L379.88,383.77z M118.58,382.01l-0.36-0.36l0.38-0.38l0.36,0.36
		L118.58,382.01z M384.86,378.75l-0.38-0.37l0.35-0.37l0.38,0.37L384.86,378.75z M113.67,376.93l-0.34-0.37l0.39-0.36l0.34,0.37
		L113.67,376.93z M389.66,373.54l-0.4-0.35l0.33-0.38l0.4,0.35L389.66,373.54z M108.95,371.66l-0.33-0.38l0.4-0.35l0.33,0.38
		L108.95,371.66z M394.25,368.16l-0.41-0.34l0.32-0.39l0.41,0.34L394.25,368.16z M104.43,366.22l-0.31-0.39l0.42-0.33l0.31,0.39
		L104.43,366.22z M398.63,362.6l-0.42-0.32l0.3-0.4l0.43,0.32L398.63,362.6z M100.12,360.61l-0.3-0.41l0.43-0.31l0.3,0.4
		L100.12,360.61z M402.81,356.88l-0.44-0.3l0.29-0.42l0.44,0.3L402.81,356.88z M96.03,354.85l-0.28-0.42l0.44-0.3l0.28,0.42
		L96.03,354.85z M406.76,351.01l-0.45-0.29l0.27-0.42l0.45,0.29L406.76,351.01z M92.17,348.94l-0.27-0.43l0.45-0.28l0.27,0.43
		L92.17,348.94z M410.5,344.98l-0.46-0.27l0.26-0.44l0.46,0.27L410.5,344.98z M88.52,342.89l-0.25-0.44l0.46-0.27l0.25,0.44
		L88.52,342.89z M414,338.82l-0.47-0.26l0.24-0.44l0.47,0.25L414,338.82z M85.12,336.7l-0.23-0.45l0.47-0.25l0.23,0.44L85.12,336.7z
		 M417.26,332.53l-0.47-0.24l0.22-0.45l0.48,0.23L417.26,332.53z M81.95,330.4l-0.22-0.45l0.48-0.23l0.22,0.45L81.95,330.4z
		 M420.28,326.12l-0.48-0.22l0.21-0.46l0.49,0.21L420.28,326.12z M79.02,323.97l-0.2-0.46l0.49-0.21l0.2,0.46L79.02,323.97z
		 M423.06,319.59l-0.49-0.2l0.19-0.47l0.49,0.2L423.06,319.59z M76.35,317.45l-0.18-0.47l0.5-0.19l0.18,0.47L76.35,317.45z
		 M425.58,312.96l-0.5-0.18l0.17-0.48l0.5,0.18L425.58,312.96z M73.91,310.81l-0.16-0.48l0.5-0.17l0.16,0.48L73.91,310.81z
		 M427.85,306.23l-0.51-0.16l0.15-0.49l0.51,0.16L427.85,306.23z M71.73,304.08l-0.15-0.48l0.51-0.15l0.15,0.48L71.73,304.08z
		 M429.85,299.45l-0.51-0.14l0.13-0.49l0.51,0.14L429.85,299.45z M69.81,297.27l-0.13-0.49l0.51-0.13l0.13,0.49L69.81,297.27z
		 M431.59,292.59l-0.52-0.12l0.11-0.49l0.52,0.12L431.59,292.59z M68.15,290.39l-0.11-0.49l0.52-0.11l0.11,0.49L68.15,290.39z
		 M433.07,285.67l-0.52-0.1l0.09-0.5l0.52,0.1L433.07,285.67z M66.76,283.45l-0.09-0.5l0.52-0.09l0.09,0.5L66.76,283.45z
		 M434.29,278.7l-0.53-0.08l0.08-0.5l0.53,0.08L434.29,278.7z M65.63,276.47l-0.07-0.5l0.53-0.07l0.07,0.5L65.63,276.47z
		 M435.24,271.64l-0.54-0.01l0.06-0.5l0.53,0.06L435.24,271.64z M64.77,269.45l-0.05-0.5l0.53-0.05l0.05,0.5L64.77,269.45z
		 M435.91,264.65l-0.53-0.04l0.04-0.5l0.53,0.04L435.91,264.65z M64.17,262.4l-0.03-0.5l0.53-0.03l0.03,0.5L64.17,262.4z
		 M436.33,257.57l-0.53,0l0.02-0.5l0.53,0.02L436.33,257.57z M63.84,255.33l-0.01-0.48l0.53-0.04l0.01,0.5L63.84,255.33z
		 M436.48,250.51l-0.53,0l0-0.5h0.53L436.48,250.51z M64.31,248.26l-0.53,0l0.01-0.51l0.53,0.01L64.31,248.26z M435.92,246.92
		l-0.01-0.5l0.53-0.01l0.01,0.5L435.92,246.92z M64.5,241.21l-0.53-0.02l0.02-0.5l0.53,0.02L64.5,241.21z M435.68,239.87l-0.03-0.5
		l0.53-0.03l0.03,0.51L435.68,239.87z M64.96,234.17l-0.53-0.04l0.04-0.5l0.53,0.05L64.96,234.17z M435.17,232.83l-0.05-0.5
		l0.53-0.05l0.05,0.5L435.17,232.83z M65.69,227.15l-0.53-0.06l0.06-0.5l0.53,0.07L65.69,227.15z M434.39,225.82l-0.07-0.5
		l0.53-0.07l0.06,0.47L434.39,225.82z M66.68,220.17l-0.53-0.08l0.08-0.5l0.53,0.09L66.68,220.17z M433.35,218.84l-0.08-0.5
		l0.52-0.09l0.08,0.5L433.35,218.84z M67.94,213.23l-0.52-0.1l0.1-0.5l0.52,0.11L67.94,213.23z M432.04,211.91l-0.1-0.49l0.52-0.11
		l0.1,0.5L432.04,211.91z M69.46,206.34l-0.52-0.12l0.12-0.49l0.52,0.12L69.46,206.34z M430.47,205.04l-0.12-0.49l0.52-0.13
		l0.12,0.49L430.47,205.04z M71.24,199.51l-0.51-0.14l0.14-0.49l0.51,0.15L71.24,199.51z M428.64,198.22l-0.14-0.48l0.51-0.15
		l0.14,0.48L428.64,198.22z M73.28,192.76l-0.51-0.16l0.16-0.48l0.51,0.16L73.28,192.76z M426.55,191.49l-0.16-0.48l0.5-0.17
		l0.16,0.48L426.55,191.49z M75.59,186.07l-0.5-0.18l0.18-0.48l0.5,0.18L75.59,186.07z M424.2,184.83l-0.18-0.47l0.5-0.19l0.18,0.47
		L424.2,184.83z M78.15,179.48l-0.49-0.2l0.19-0.47l0.49,0.2L78.15,179.48z M421.61,178.29l-0.19-0.46l0.49-0.21l0.19,0.47
		L421.61,178.29z M80.96,172.99l-0.48-0.22l0.21-0.46l0.48,0.22L80.96,172.99z M418.77,171.86l-0.21-0.45l0.48-0.23l0.21,0.46
		L418.77,171.86z M84.02,166.61l-0.48-0.24l0.23-0.45l0.47,0.24L84.02,166.61z M415.68,165.53l-0.23-0.45l0.47-0.25l0.23,0.45
		L415.68,165.53z M87.31,160.36l-0.47-0.26l0.25-0.44l0.46,0.26L87.31,160.36z M412.36,159.33l-0.25-0.44l0.46-0.26l0.25,0.44
		L412.36,159.33z M90.84,154.24l-0.46-0.27l0.26-0.43l0.46,0.27L90.84,154.24z M408.8,153.25l-0.26-0.43l0.45-0.28l0.26,0.43
		L408.8,153.25z M94.6,148.26l-0.45-0.29l0.28-0.42l0.44,0.29L94.6,148.26z M405.02,147.31l-0.28-0.42l0.44-0.3l0.28,0.42
		L405.02,147.31z M98.59,142.43l-0.43-0.31l0.29-0.41l0.43,0.31L98.59,142.43z M401.01,141.52l-0.29-0.41l0.43-0.31l0.29,0.41
		L401.01,141.52z M102.79,136.75l-0.42-0.32l0.31-0.4l0.42,0.33L102.79,136.75z M396.78,135.88l-0.31-0.4l0.42-0.33l0.31,0.4
		L396.78,135.88z M107.2,131.24l-0.41-0.34l0.32-0.39l0.41,0.34L107.2,131.24z M392.34,130.4l-0.33-0.39l0.41-0.34l0.33,0.39
		L392.34,130.4z M111.81,125.9l-0.4-0.36l0.34-0.38l0.39,0.36L111.81,125.9z M387.7,125.09l-0.34-0.37l0.39-0.36l0.34,0.37
		L387.7,125.09z M116.62,120.75l-0.38-0.37l0.35-0.36l0.38,0.37L116.62,120.75z M382.86,119.96l-0.35-0.36l0.38-0.37l0.35,0.36
		L382.86,119.96z M121.62,115.77l-0.37-0.38l0.36-0.35l0.37,0.38L121.62,115.77z M377.83,115.02l-0.37-0.35l0.37-0.39l0.37,0.35
		L377.83,115.02z M126.81,110.99l-0.35-0.4l0.38-0.33l0.35,0.4L126.81,110.99z M372.62,110.26l-0.38-0.33l0.35-0.4l0.38,0.33
		L372.62,110.26z M132.17,106.41l-0.34-0.41l0.39-0.32l0.34,0.41L132.17,106.41z M367.22,105.71l-0.39-0.32l0.33-0.41l0.39,0.32
		L367.22,105.71z M137.7,102.04l-0.32-0.42l0.4-0.3l0.32,0.42L137.7,102.04z M361.66,101.36l-0.4-0.3l0.32-0.43l0.4,0.3
		L361.66,101.36z M143.39,97.87l-0.31-0.43l0.41-0.29l0.3,0.44L143.39,97.87z M355.94,97.23l-0.42-0.29l0.3-0.44l0.42,0.29
		L355.94,97.23z M149.23,93.93l-0.29-0.45l0.42-0.27l0.29,0.45L149.23,93.93z M350.06,93.31l-0.43-0.27l0.29-0.45l0.43,0.27
		L350.06,93.31z M155.21,90.22l-0.27-0.46l0.43-0.26l0.27,0.46L155.21,90.22z M344.04,89.62l-0.44-0.26l0.27-0.46l0.44,0.26
		L344.04,89.62z M161.33,86.73l-0.25-0.47l0.44-0.24l0.25,0.47L161.33,86.73z M337.88,86.16l-0.45-0.24l0.25-0.47l0.45,0.24
		L337.88,86.16z M167.57,83.48L167.33,83l0.45-0.22l0.24,0.48L167.57,83.48z M331.58,82.94l-0.46-0.22l0.23-0.48l0.46,0.22
		L331.58,82.94z M173.93,80.47l-0.22-0.49l0.46-0.21l0.22,0.49L173.93,80.47z M325.17,79.96l-0.46-0.2l0.21-0.49l0.46,0.2
		L325.17,79.96z M180.4,77.71l-0.2-0.49l0.47-0.19l0.2,0.49L180.4,77.71z M318.65,77.23l-0.47-0.19l0.2-0.5l0.47,0.19L318.65,77.23z
		 M186.99,75.18l-0.18-0.5l0.48-0.17l0.18,0.5L186.99,75.18z M312.03,74.74l-0.48-0.17l0.18-0.5l0.48,0.17L312.03,74.74z
		 M193.67,72.91l-0.16-0.51l0.48-0.15l0.16,0.51L193.67,72.91z M305.31,72.51l-0.49-0.15l0.16-0.51l0.49,0.15L305.31,72.51z
		 M200.43,70.9l-0.14-0.51l0.49-0.13l0.14,0.51L200.43,70.9z M298.53,70.55l-0.49-0.13l0.14-0.51l0.49,0.13L298.53,70.55z
		 M207.26,69.15l-0.12-0.52l0.49-0.12l0.12,0.52L207.26,69.15z M291.68,68.85l-0.49-0.11l0.12-0.52l0.49,0.11L291.68,68.85z
		 M214.16,67.66l-0.1-0.52l0.5-0.1l0.1,0.52L214.16,67.66z M284.78,67.41l-0.5-0.09l0.1-0.52l0.5,0.09L284.78,67.41z M221.1,66.43
		l-0.08-0.53l0.5-0.08l0.08,0.53L221.1,66.43z M277.82,66.23l-0.5-0.07l0.08-0.53l0.5,0.07L277.82,66.23z M228.09,65.47l-0.06-0.53
		l0.5-0.06l0.06,0.53L228.09,65.47z M270.83,65.32l-0.5-0.05l0.06-0.53l0.5,0.05L270.83,65.32z M235.11,64.78l-0.04-0.53l0.5-0.04
		l0.04,0.53L235.11,64.78z M263.8,64.68l-0.5-0.04l0.04-0.53l0.5,0.04L263.8,64.68z M242.15,64.35l-0.02-0.53l0.5-0.02l0.02,0.53
		L242.15,64.35z M256.76,64.3l-0.5-0.02l0.02-0.53l0.5,0.02L256.76,64.3z M249.2,64.18l0-0.53l0.5,0l0,0.53L249.2,64.18z"/>
	<path class="st0" d="M250.12,398.52c-44.72,0-86.77-17.42-118.4-49.04c-31.62-31.62-49.04-73.67-49.04-118.4
		s17.42-86.77,49.04-118.4c31.62-31.62,73.67-49.04,118.4-49.04s86.77,17.42,118.4,49.04c31.62,31.62,49.04,73.67,49.04,118.4
		s-17.42,86.77-49.04,118.4C336.89,381.11,294.85,398.52,250.12,398.52z M250.12,64.18c-92.03,0-166.9,74.87-166.9,166.9
		s74.87,166.9,166.9,166.9s166.91-74.87,166.91-166.9S342.16,64.18,250.12,64.18z"/>
	<path class="st0" d="M250.12,434.37c-44.72,0-86.77-17.42-118.4-49.04c-31.62-31.62-49.04-73.67-49.04-118.4
		c0-44.72,17.42-86.77,49.04-118.4c31.62-31.62,73.67-49.04,118.4-49.04s86.77,17.42,118.4,49.04
		c31.62,31.62,49.04,73.67,49.04,118.4c0,44.72-17.42,86.77-49.04,118.4C336.89,416.95,294.85,434.37,250.12,434.37z M250.12,100.03
		c-92.03,0-166.9,74.87-166.9,166.9c0,92.03,74.87,166.91,166.9,166.91s166.91-74.87,166.91-166.91
		C417.03,174.9,342.16,100.03,250.12,100.03z"/>
	<path class="st0" d="M231.2,417.44c-44.72,0-86.77-17.42-118.4-49.04c-31.62-31.62-49.04-73.67-49.04-118.4
		c0-44.72,17.42-86.77,49.04-118.4s73.67-49.04,118.4-49.04c44.72,0,86.77,17.42,118.4,49.04c31.62,31.62,49.04,73.67,49.04,118.4
		c0,44.72-17.42,86.77-49.04,118.4C317.97,400.03,275.93,417.44,231.2,417.44z M231.2,83.1c-92.03,0-166.9,74.87-166.9,166.9
		c0,92.03,74.87,166.91,166.9,166.91c92.03,0,166.91-74.87,166.91-166.91C398.11,157.98,323.23,83.1,231.2,83.1z"/>
	<path class="st0" d="M269.04,417.44c-44.72,0-86.77-17.42-118.4-49.04c-31.62-31.62-49.04-73.67-49.04-118.4
		c0-44.72,17.42-86.77,49.04-118.4s73.67-49.04,118.4-49.04c44.72,0,86.77,17.42,118.4,49.04c31.62,31.62,49.04,73.67,49.04,118.4
		c0,44.72-17.42,86.77-49.04,118.4C355.82,400.03,313.77,417.44,269.04,417.44z M269.04,83.1c-92.03,0-166.9,74.87-166.9,166.9
		c0,92.03,74.87,166.91,166.9,166.91s166.91-74.87,166.91-166.91C435.95,157.98,361.08,83.1,269.04,83.1z"/>
	<g>
		
			<rect x="106.64" y="158.66" transform="matrix(0.7071 -0.7071 0.7071 0.7071 -118.7157 137.7401)" class="st0" width="0.53" height="107.01"/>
		
			<rect x="158.61" y="101.45" transform="matrix(0.7071 -0.7071 0.7071 0.7071 -86.7382 167.5444)" class="st0" width="0.53" height="174.04"/>
	</g>
</g>
</svg>
