<svg version="1.1" id="Camada_1" xmlns="http://www.w3.org/2000/svg" xmlns:xlink="http://www.w3.org/1999/xlink" x="0px" y="0px"
	 viewBox="0 0 500 500" xml:space="preserve">
<circle cx="0" cy="0" r="1.5"/>
<circle cx="13.51" cy="0" r="1.5"/>
<circle cx="27.03" cy="0" r="1.5"/>
<circle cx="40.54" cy="0" r="1.5"/>
<circle cx="54.05" cy="0" r="1.5"/>
<circle cx="67.57" cy="0" r="1.5"/>
<circle cx="81.08" cy="0" r="1.5"/>
<circle cx="94.59" cy="0" r="1.5"/>
<circle cx="108.11" cy="0" r="1.5"/>
<circle cx="121.62" cy="0" r="1.5"/>
<circle cx="135.14" cy="0" r="1.5"/>
<circle cx="148.65" cy="0" r="1.5"/>
<circle cx="162.16" cy="0" r="1.5"/>
<circle cx="175.68" cy="0" r="1.5"/>
<circle cx="189.19" cy="0" r="1.5"/>
<circle cx="202.7" cy="0" r="1.5"/>
<circle cx="216.22" cy="0" r="1.5"/>
<circle cx="229.73" cy="0" r="1.5"/>
<circle cx="243.24" cy="0" r="1.5"/>
<circle cx="256.76" cy="0" r="1.5"/>
<circle cx="270.27" cy="0" r="1.5"/>
<circle cx="283.78" cy="0" r="1.5"/>
<circle cx="297.3" cy="0" r="1.5"/>
<circle cx="310.81" cy="0" r="1.5"/>
<circle cx="324.32" cy="0" r="1.5"/>
<circle cx="337.84" cy="0" r="1.5"/>
<circle cx="351.35" cy="0" r="1.5"/>
<circle cx="364.86" cy="0" r="1.5"/>
<circle cx="378.38" cy="0" r="1.5"/>
<circle cx="391.89" cy="0" r="1.5"/>
<circle cx="405.41" cy="0" r="1.5"/>
<circle cx="418.92" cy="0" r="1.5"/>
<circle cx="432.43" cy="0" r="1.5"/>
<circle cx="445.95" cy="0" r="1.5"/>
<circle cx="459.46" cy="0" r="1.5"/>
<circle cx="472.97" cy="0" r="1.5"/>
<circle cx="486.49" cy="0" r="1.5"/>
<circle cx="500" cy="0" r="1.5"/>
<circle cx="0" cy="13.51" r="1.5"/>
<circle cx="0" cy="27.03" r="1.5"/>
<circle cx="0" cy="40.54" r="1.5"/>
<circle cx="0" cy="54.05" r="1.5"/>
<circle cx="0" cy="67.57" r="1.5"/>
<circle cx="0" cy="81.08" r="1.5"/>
<circle cx="0" cy="94.59" r="1.5"/>
<circle cx="0" cy="108.11" r="1.5"/>
<circle cx="0" cy="121.62" r="1.5"/>
<circle cx="0" cy="135.14" r="1.5"/>
<circle cx="0" cy="148.65" r="1.5"/>
<circle cx="0" cy="162.16" r="1.5"/>
<circle cx="0" cy="175.68" r="1.5"/>
<circle cx="0" cy="189.19" r="1.5"/>
<circle cx="0" cy="202.7" r="1.5"/>
<circle cx="0" cy="216.22" r="1.5"/>
<circle cx="0" cy="229.73" r="1.5"/>
<circle cx="0" cy="243.24" r="1.5"/>
<circle cx="0" cy="256.76" r="1.5"/>
<circle cx="0" cy="270.27" r="1.5"/>
<circle cx="0" cy="283.78" r="1.5"/>
<circle cx="0" cy="297.3" r="1.5"/>
<circle cx="0" cy="310.81" r="1.5"/>
<circle cx="0" cy="324.32" r="1.5"/>
<circle cx="0" cy="337.84" r="1.5"/>
<circle cx="0" cy="351.35" r="1.5"/>
<circle cx="0" cy="364.86" r="1.5"/>
<circle cx="0" cy="378.38" r="1.5"/>
<circle cx="0" cy="391.89" r="1.5"/>
<circle cx="0" cy="405.41" r="1.5"/>
<circle cx="0" cy="418.92" r="1.5"/>
<circle cx="0" cy="432.43" r="1.5"/>
<circle cx="0" cy="445.95" r="1.5"/>
<circle cx="0" cy="459.46" r="1.5"/>
<circle cx="0" cy="472.97" r="1.5"/>
<circle cx="0" cy="486.49" r="1.5"/>
<circle cx="0" cy="500" r="1.5"/>
<circle cx="13.51" cy="13.51" r="1.5"/>
<circle cx="13.51" cy="27.03" r="1.5"/>
<circle cx="13.51" cy="40.54" r="1.5"/>
<circle cx="13.51" cy="54.05" r="1.5"/>
<circle cx="13.51" cy="67.57" r="1.5"/>
<circle cx="13.51" cy="81.08" r="1.5"/>
<circle cx="13.51" cy="94.59" r="1.5"/>
<circle cx="13.51" cy="108.11" r="1.5"/>
<circle cx="13.51" cy="121.62" r="1.5"/>
<circle cx="13.51" cy="135.14" r="1.5"/>
<circle cx="13.51" cy="148.65" r="1.5"/>
<circle cx="13.51" cy="162.16" r="1.5"/>
<circle cx="13.51" cy="175.68" r="1.5"/>
<circle cx="13.51" cy="189.19" r="1.5"/>
<circle cx="13.51" cy="202.7" r="1.5"/>
<circle cx="13.51" cy="216.22" r="1.5"/>
<circle cx="13.51" cy="229.73" r="1.5"/>
<circle cx="13.51" cy="243.24" r="1.5"/>
<circle cx="13.51" cy="256.76" r="1.5"/>
<circle cx="13.51" cy="270.27" r="1.5"/>
<circle cx="13.51" cy="283.78" r="1.5"/>
<circle cx="13.51" cy="297.3" r="1.5"/>
<circle cx="13.51" cy="310.81" r="1.5"/>
<circle cx="13.51" cy="324.32" r="1.5"/>
<circle cx="13.51" cy="337.84" r="1.5"/>
<circle cx="13.51" cy="351.35" r="1.5"/>
<circle cx="13.51" cy="364.86" r="1.5"/>
<circle cx="13.51" cy="378.38" r="1.5"/>
<circle cx="13.51" cy="391.89" r="1.5"/>
<circle cx="13.51" cy="405.41" r="1.5"/>
<circle cx="13.51" cy="418.92" r="1.5"/>
<circle cx="13.51" cy="432.43" r="1.5"/>
<circle cx="13.51" cy="445.95" r="1.5"/>
<circle cx="13.51" cy="459.46" r="1.5"/>
<circle cx="13.51" cy="472.97" r="1.5"/>
<circle cx="13.51" cy="486.49" r="1.5"/>
<circle cx="13.51" cy="500" r="1.5"/>
<circle cx="27.03" cy="13.51" r="1.5"/>
<circle cx="27.03" cy="27.03" r="1.5"/>
<circle cx="27.03" cy="40.54" r="1.5"/>
<circle cx="27.03" cy="54.05" r="1.5"/>
<circle cx="27.03" cy="67.57" r="1.5"/>
<circle cx="27.03" cy="81.08" r="1.5"/>
<circle cx="27.03" cy="94.59" r="1.5"/>
<circle cx="27.03" cy="108.11" r="1.5"/>
<circle cx="27.03" cy="121.62" r="1.5"/>
<circle cx="27.03" cy="135.14" r="1.5"/>
<circle cx="27.03" cy="148.65" r="1.5"/>
<circle cx="27.03" cy="162.16" r="1.5"/>
<circle cx="27.03" cy="175.68" r="1.5"/>
<circle cx="27.03" cy="189.19" r="1.5"/>
<circle cx="27.03" cy="202.7" r="1.5"/>
<circle cx="27.03" cy="216.22" r="1.5"/>
<circle cx="27.03" cy="229.73" r="1.5"/>
<circle cx="27.03" cy="243.24" r="1.5"/>
<circle cx="27.03" cy="256.76" r="1.5"/>
<circle cx="27.03" cy="270.27" r="1.5"/>
<circle cx="27.03" cy="283.78" r="1.5"/>
<circle cx="27.03" cy="297.3" r="1.5"/>
<circle cx="27.03" cy="310.81" r="1.5"/>
<circle cx="27.03" cy="324.32" r="1.5"/>
<circle cx="27.03" cy="337.84" r="1.5"/>
<circle cx="27.03" cy="351.35" r="1.5"/>
<circle cx="27.03" cy="364.86" r="1.5"/>
<circle cx="27.03" cy="378.38" r="1.5"/>
<circle cx="27.03" cy="391.89" r="1.5"/>
<circle cx="27.03" cy="405.41" r="1.5"/>
<circle cx="27.03" cy="418.92" r="1.5"/>
<circle cx="27.03" cy="432.43" r="1.5"/>
<circle cx="27.03" cy="445.95" r="1.5"/>
<circle cx="27.03" cy="459.46" r="1.5"/>
<circle cx="27.03" cy="472.97" r="1.5"/>
<circle cx="27.03" cy="486.49" r="1.5"/>
<circle cx="27.03" cy="500" r="1.5"/>
<circle cx="40.54" cy="13.51" r="1.5"/>
<circle cx="40.54" cy="27.03" r="1.5"/>
<circle cx="40.54" cy="40.54" r="1.5"/>
<circle cx="40.54" cy="54.05" r="1.5"/>
<circle cx="40.54" cy="67.57" r="1.5"/>
<circle cx="40.54" cy="81.08" r="1.5"/>
<circle cx="40.54" cy="94.59" r="1.5"/>
<circle cx="40.54" cy="108.11" r="1.5"/>
<circle cx="40.54" cy="121.62" r="1.5"/>
<circle cx="40.54" cy="135.14" r="1.5"/>
<circle cx="40.54" cy="148.65" r="1.5"/>
<circle cx="40.54" cy="162.16" r="1.5"/>
<circle cx="40.54" cy="175.68" r="1.5"/>
<circle cx="40.54" cy="189.19" r="1.5"/>
<circle cx="40.54" cy="202.7" r="1.5"/>
<circle cx="40.54" cy="216.22" r="1.5"/>
<circle cx="40.54" cy="229.73" r="1.5"/>
<circle cx="40.54" cy="243.24" r="1.5"/>
<circle cx="40.54" cy="256.76" r="1.5"/>
<circle cx="40.54" cy="270.27" r="1.5"/>
<circle cx="40.54" cy="283.78" r="1.5"/>
<circle cx="40.54" cy="297.3" r="1.5"/>
<circle cx="40.54" cy="310.81" r="1.5"/>
<circle cx="40.54" cy="324.32" r="1.5"/>
<circle cx="40.54" cy="337.84" r="1.5"/>
<circle cx="40.54" cy="351.35" r="1.5"/>
<circle cx="40.54" cy="364.86" r="1.5"/>
<circle cx="40.54" cy="378.38" r="1.5"/>
<circle cx="40.54" cy="391.89" r="1.5"/>
<circle cx="40.54" cy="405.41" r="1.5"/>
<circle cx="40.54" cy="418.92" r="1.5"/>
<circle cx="40.54" cy="432.43" r="1.5"/>
<circle cx="40.54" cy="445.95" r="1.5"/>
<circle cx="40.54" cy="459.46" r="1.5"/>
<circle cx="40.54" cy="472.97" r="1.5"/>
<circle cx="40.54" cy="486.49" r="1.5"/>
<circle cx="40.54" cy="500" r="1.5"/>
<circle cx="54.05" cy="13.51" r="1.5"/>
<circle cx="54.05" cy="27.03" r="1.5"/>
<circle cx="54.05" cy="40.54" r="1.5"/>
<circle cx="54.05" cy="54.05" r="1.5"/>
<circle cx="54.05" cy="67.57" r="1.5"/>
<circle cx="54.05" cy="81.08" r="1.5"/>
<circle cx="54.05" cy="94.59" r="1.5"/>
<circle cx="54.05" cy="108.11" r="1.5"/>
<circle cx="54.05" cy="121.62" r="1.5"/>
<circle cx="54.05" cy="135.14" r="1.5"/>
<circle cx="54.05" cy="148.65" r="1.5"/>
<circle cx="54.05" cy="162.16" r="1.5"/>
<circle cx="54.05" cy="175.68" r="1.5"/>
<circle cx="54.05" cy="189.19" r="1.5"/>
<circle cx="54.05" cy="202.7" r="1.5"/>
<circle cx="54.05" cy="216.22" r="1.5"/>
<circle cx="54.05" cy="229.73" r="1.5"/>
<circle cx="54.05" cy="243.24" r="1.5"/>
<circle cx="54.05" cy="256.76" r="1.5"/>
<circle cx="54.05" cy="270.27" r="1.5"/>
<circle cx="54.05" cy="283.78" r="1.5"/>
<circle cx="54.05" cy="297.3" r="1.5"/>
<circle cx="54.05" cy="310.81" r="1.5"/>
<circle cx="54.05" cy="324.32" r="1.5"/>
<circle cx="54.05" cy="337.84" r="1.5"/>
<circle cx="54.05" cy="351.35" r="1.5"/>
<circle cx="54.05" cy="364.86" r="1.5"/>
<circle cx="54.05" cy="378.38" r="1.5"/>
<circle cx="54.05" cy="391.89" r="1.5"/>
<circle cx="54.05" cy="405.41" r="1.5"/>
<circle cx="54.05" cy="418.92" r="1.5"/>
<circle cx="54.05" cy="432.43" r="1.5"/>
<circle cx="54.05" cy="445.95" r="1.5"/>
<circle cx="54.05" cy="459.46" r="1.5"/>
<circle cx="54.05" cy="472.97" r="1.5"/>
<circle cx="54.05" cy="486.49" r="1.5"/>
<circle cx="54.05" cy="500" r="1.5"/>
<circle cx="67.57" cy="13.51" r="1.5"/>
<circle cx="67.57" cy="27.03" r="1.5"/>
<circle cx="67.57" cy="40.54" r="1.5"/>
<circle cx="67.57" cy="54.05" r="1.5"/>
<circle cx="67.57" cy="67.57" r="1.5"/>
<circle cx="67.57" cy="81.08" r="1.5"/>
<circle cx="67.57" cy="94.59" r="1.5"/>
<circle cx="67.57" cy="108.11" r="1.5"/>
<circle cx="67.57" cy="121.62" r="1.5"/>
<circle cx="67.57" cy="135.14" r="1.5"/>
<circle cx="67.57" cy="148.65" r="1.5"/>
<circle cx="67.57" cy="162.16" r="1.5"/>
<circle cx="67.57" cy="175.68" r="1.5"/>
<circle cx="67.57" cy="189.19" r="1.5"/>
<circle cx="67.57" cy="202.7" r="1.5"/>
<circle cx="67.57" cy="216.22" r="1.5"/>
<circle cx="67.57" cy="229.73" r="1.5"/>
<circle cx="67.57" cy="243.24" r="1.5"/>
<circle cx="67.57" cy="256.76" r="1.5"/>
<circle cx="67.57" cy="270.27" r="1.5"/>
<circle cx="67.57" cy="283.78" r="1.5"/>
<circle cx="67.57" cy="297.3" r="1.5"/>
<circle cx="67.57" cy="310.81" r="1.5"/>
<circle cx="67.57" cy="324.32" r="1.5"/>
<circle cx="67.57" cy="337.84" r="1.5"/>
<circle cx="67.57" cy="351.35" r="1.5"/>
<circle cx="67.57" cy="364.86" r="1.5"/>
<circle cx="67.57" cy="378.38" r="1.5"/>
<circle cx="67.57" cy="391.89" r="1.5"/>
<circle cx="67.57" cy="405.41" r="1.5"/>
<circle cx="67.57" cy="418.92" r="1.5"/>
<circle cx="67.57" cy="432.43" r="1.5"/>
<circle cx="67.57" cy="445.95" r="1.5"/>
<circle cx="67.57" cy="459.46" r="1.5"/>
<circle cx="67.57" cy="472.97" r="1.5"/>
<circle cx="67.57" cy="486.49" r="1.5"/>
<circle cx="67.57" cy="500" r="1.5"/>
<circle cx="81.08" cy="13.51" r="1.5"/>
<circle cx="81.08" cy="27.03" r="1.5"/>
<circle cx="81.08" cy="40.54" r="1.5"/>
<circle cx="81.08" cy="54.05" r="1.5"/>
<circle cx="81.08" cy="67.57" r="1.5"/>
<circle cx="81.08" cy="81.08" r="1.5"/>
<circle cx="81.08" cy="94.59" r="1.5"/>
<circle cx="81.08" cy="108.11" r="1.5"/>
<circle cx="81.08" cy="121.62" r="1.5"/>
<circle cx="81.08" cy="135.14" r="1.5"/>
<circle cx="81.08" cy="148.65" r="1.5"/>
<circle cx="81.08" cy="162.16" r="1.5"/>
<circle cx="81.08" cy="175.68" r="1.5"/>
<circle cx="81.08" cy="189.19" r="1.5"/>
<circle cx="81.08" cy="202.7" r="1.5"/>
<circle cx="81.08" cy="216.22" r="1.5"/>
<circle cx="81.08" cy="229.73" r="1.5"/>
<circle cx="81.08" cy="243.24" r="1.5"/>
<circle cx="81.08" cy="256.76" r="1.5"/>
<circle cx="81.08" cy="270.27" r="1.5"/>
<circle cx="81.08" cy="283.78" r="1.5"/>
<circle cx="81.08" cy="297.3" r="1.5"/>
<circle cx="81.08" cy="310.81" r="1.5"/>
<circle cx="81.08" cy="324.32" r="1.5"/>
<circle cx="81.08" cy="337.84" r="1.5"/>
<circle cx="81.08" cy="351.35" r="1.5"/>
<circle cx="81.08" cy="364.86" r="1.5"/>
<circle cx="81.08" cy="378.38" r="1.5"/>
<circle cx="81.08" cy="391.89" r="1.5"/>
<circle cx="81.08" cy="405.41" r="1.5"/>
<circle cx="81.08" cy="418.92" r="1.5"/>
<circle cx="81.08" cy="432.43" r="1.5"/>
<circle cx="81.08" cy="445.95" r="1.5"/>
<circle cx="81.08" cy="459.46" r="1.5"/>
<circle cx="81.08" cy="472.97" r="1.5"/>
<circle cx="81.08" cy="486.49" r="1.5"/>
<circle cx="81.08" cy="500" r="1.5"/>
<circle cx="94.59" cy="13.51" r="1.5"/>
<circle cx="94.59" cy="27.03" r="1.5"/>
<circle cx="94.59" cy="40.54" r="1.5"/>
<circle cx="94.59" cy="54.05" r="1.5"/>
<circle cx="94.59" cy="67.57" r="1.5"/>
<circle cx="94.59" cy="81.08" r="1.5"/>
<circle cx="94.59" cy="94.59" r="1.5"/>
<circle cx="94.59" cy="108.11" r="1.5"/>
<circle cx="94.59" cy="121.62" r="1.5"/>
<circle cx="94.59" cy="135.14" r="1.5"/>
<circle cx="94.59" cy="148.65" r="1.5"/>
<circle cx="94.59" cy="162.16" r="1.5"/>
<circle cx="94.59" cy="175.68" r="1.5"/>
<circle cx="94.59" cy="189.19" r="1.5"/>
<circle cx="94.59" cy="202.7" r="1.5"/>
<circle cx="94.59" cy="216.22" r="1.5"/>
<circle cx="94.59" cy="229.73" r="1.5"/>
<circle cx="94.59" cy="243.24" r="1.5"/>
<circle cx="94.59" cy="256.76" r="1.5"/>
<circle cx="94.59" cy="270.27" r="1.5"/>
<circle cx="94.59" cy="283.78" r="1.5"/>
<circle cx="94.59" cy="297.3" r="1.5"/>
<circle cx="94.59" cy="310.81" r="1.5"/>
<circle cx="94.59" cy="324.32" r="1.5"/>
<circle cx="94.59" cy="337.84" r="1.5"/>
<circle cx="94.59" cy="351.35" r="1.5"/>
<circle cx="94.59" cy="364.86" r="1.5"/>
<circle cx="94.59" cy="378.38" r="1.5"/>
<circle cx="94.59" cy="391.89" r="1.5"/>
<circle cx="94.59" cy="405.41" r="1.5"/>
<circle cx="94.59" cy="418.92" r="1.5"/>
<circle cx="94.59" cy="432.43" r="1.5"/>
<circle cx="94.59" cy="445.95" r="1.5"/>
<circle cx="94.59" cy="459.46" r="1.5"/>
<circle cx="94.59" cy="472.97" r="1.5"/>
<circle cx="94.59" cy="486.49" r="1.5"/>
<circle cx="94.59" cy="500" r="1.5"/>
<circle cx="108.11" cy="13.51" r="1.5"/>
<circle cx="108.11" cy="27.03" r="1.5"/>
<circle cx="108.11" cy="40.54" r="1.5"/>
<circle cx="108.11" cy="54.05" r="1.5"/>
<circle cx="108.11" cy="67.57" r="1.5"/>
<circle cx="108.11" cy="81.08" r="1.5"/>
<circle cx="108.11" cy="94.59" r="1.5"/>
<circle cx="108.11" cy="108.11" r="1.5"/>
<circle cx="108.11" cy="121.62" r="1.5"/>
<circle cx="108.11" cy="135.14" r="1.5"/>
<circle cx="108.11" cy="148.65" r="1.5"/>
<circle cx="108.11" cy="162.16" r="1.5"/>
<circle cx="108.11" cy="175.68" r="1.5"/>
<circle cx="108.11" cy="189.19" r="1.5"/>
<circle cx="108.11" cy="202.7" r="1.5"/>
<circle cx="108.11" cy="216.22" r="1.5"/>
<circle cx="108.11" cy="229.73" r="1.5"/>
<circle cx="108.11" cy="243.24" r="1.5"/>
<circle cx="108.11" cy="256.76" r="1.5"/>
<circle cx="108.11" cy="270.27" r="1.5"/>
<circle cx="108.11" cy="283.78" r="1.5"/>
<circle cx="108.11" cy="297.3" r="1.5"/>
<circle cx="108.11" cy="310.81" r="1.5"/>
<circle cx="108.11" cy="324.32" r="1.5"/>
<circle cx="108.11" cy="337.84" r="1.5"/>
<circle cx="108.11" cy="351.35" r="1.5"/>
<circle cx="108.11" cy="364.86" r="1.5"/>
<circle cx="108.11" cy="378.38" r="1.5"/>
<circle cx="108.11" cy="391.89" r="1.5"/>
<circle cx="108.11" cy="405.41" r="1.5"/>
<circle cx="108.11" cy="418.92" r="1.5"/>
<circle cx="108.11" cy="432.43" r="1.5"/>
<circle cx="108.11" cy="445.95" r="1.5"/>
<circle cx="108.11" cy="459.46" r="1.5"/>
<circle cx="108.11" cy="472.97" r="1.5"/>
<circle cx="108.11" cy="486.49" r="1.5"/>
<circle cx="108.11" cy="500" r="1.5"/>
<circle cx="121.62" cy="13.51" r="1.5"/>
<circle cx="121.62" cy="27.03" r="1.5"/>
<circle cx="121.62" cy="40.54" r="1.5"/>
<circle cx="121.62" cy="54.05" r="1.5"/>
<circle cx="121.62" cy="67.57" r="1.5"/>
<circle cx="121.62" cy="81.08" r="1.5"/>
<circle cx="121.62" cy="94.59" r="1.5"/>
<circle cx="121.62" cy="108.11" r="1.5"/>
<circle cx="121.62" cy="121.62" r="1.5"/>
<circle cx="121.62" cy="135.14" r="1.5"/>
<circle cx="121.62" cy="148.65" r="1.5"/>
<circle cx="121.62" cy="162.16" r="1.5"/>
<circle cx="121.62" cy="175.68" r="1.5"/>
<circle cx="121.62" cy="189.19" r="1.5"/>
<circle cx="121.62" cy="202.7" r="1.5"/>
<circle cx="121.62" cy="216.22" r="1.5"/>
<circle cx="121.62" cy="229.73" r="1.5"/>
<circle cx="121.62" cy="243.24" r="1.5"/>
<circle cx="121.62" cy="256.76" r="1.5"/>
<circle cx="121.62" cy="270.27" r="1.5"/>
<circle cx="121.62" cy="283.78" r="1.5"/>
<circle cx="121.62" cy="297.3" r="1.5"/>
<circle cx="121.62" cy="310.81" r="1.5"/>
<circle cx="121.62" cy="324.32" r="1.5"/>
<circle cx="121.62" cy="337.84" r="1.5"/>
<circle cx="121.62" cy="351.35" r="1.5"/>
<circle cx="121.62" cy="364.86" r="1.5"/>
<circle cx="121.62" cy="378.38" r="1.5"/>
<circle cx="121.62" cy="391.89" r="1.5"/>
<circle cx="121.62" cy="405.41" r="1.5"/>
<circle cx="121.62" cy="418.92" r="1.5"/>
<circle cx="121.62" cy="432.43" r="1.5"/>
<circle cx="121.62" cy="445.95" r="1.5"/>
<circle cx="121.62" cy="459.46" r="1.5"/>
<circle cx="121.62" cy="472.97" r="1.5"/>
<circle cx="121.62" cy="486.49" r="1.5"/>
<circle cx="121.62" cy="500" r="1.5"/>
<circle cx="135.14" cy="13.51" r="1.5"/>
<circle cx="135.14" cy="27.03" r="1.5"/>
<circle cx="135.14" cy="40.54" r="1.5"/>
<circle cx="135.14" cy="54.05" r="1.5"/>
<circle cx="135.14" cy="67.57" r="1.5"/>
<circle cx="135.14" cy="81.08" r="1.5"/>
<circle cx="135.14" cy="94.59" r="1.5"/>
<circle cx="135.14" cy="108.11" r="1.5"/>
<circle cx="135.14" cy="121.62" r="1.5"/>
<circle cx="135.14" cy="135.14" r="1.5"/>
<circle cx="135.14" cy="148.65" r="1.5"/>
<circle cx="135.14" cy="162.16" r="1.5"/>
<circle cx="135.14" cy="175.68" r="1.5"/>
<circle cx="135.14" cy="189.19" r="1.5"/>
<circle cx="135.14" cy="202.7" r="1.5"/>
<circle cx="135.14" cy="216.22" r="1.5"/>
<circle cx="135.14" cy="229.73" r="1.5"/>
<circle cx="135.14" cy="243.24" r="1.5"/>
<circle cx="135.14" cy="256.76" r="1.5"/>
<circle cx="135.14" cy="270.27" r="1.5"/>
<circle cx="135.14" cy="283.78" r="1.5"/>
<circle cx="135.14" cy="297.3" r="1.5"/>
<circle cx="135.14" cy="310.81" r="1.5"/>
<circle cx="135.14" cy="324.32" r="1.5"/>
<circle cx="135.14" cy="337.84" r="1.5"/>
<circle cx="135.14" cy="351.35" r="1.5"/>
<circle cx="135.14" cy="364.86" r="1.5"/>
<circle cx="135.14" cy="378.38" r="1.5"/>
<circle cx="135.14" cy="391.89" r="1.5"/>
<circle cx="135.14" cy="405.41" r="1.5"/>
<circle cx="135.14" cy="418.92" r="1.5"/>
<circle cx="135.14" cy="432.43" r="1.5"/>
<circle cx="135.14" cy="445.95" r="1.5"/>
<circle cx="135.14" cy="459.46" r="1.5"/>
<circle cx="135.14" cy="472.97" r="1.5"/>
<circle cx="135.14" cy="486.49" r="1.5"/>
<circle cx="135.14" cy="500" r="1.5"/>
<circle cx="148.65" cy="13.51" r="1.5"/>
<circle cx="148.65" cy="27.03" r="1.5"/>
<circle cx="148.65" cy="40.54" r="1.5"/>
<circle cx="148.65" cy="54.05" r="1.5"/>
<circle cx="148.65" cy="67.57" r="1.5"/>
<circle cx="148.65" cy="81.08" r="1.5"/>
<circle cx="148.65" cy="94.59" r="1.5"/>
<circle cx="148.65" cy="108.11" r="1.5"/>
<circle cx="148.65" cy="121.62" r="1.5"/>
<circle cx="148.65" cy="135.14" r="1.5"/>
<circle cx="148.65" cy="148.65" r="1.5"/>
<circle cx="148.65" cy="162.16" r="1.5"/>
<circle cx="148.65" cy="175.68" r="1.5"/>
<circle cx="148.65" cy="189.19" r="1.5"/>
<circle cx="148.65" cy="202.7" r="1.5"/>
<circle cx="148.65" cy="216.22" r="1.5"/>
<circle cx="148.65" cy="229.73" r="1.5"/>
<circle cx="148.65" cy="243.24" r="1.5"/>
<circle cx="148.65" cy="256.76" r="1.5"/>
<circle cx="148.65" cy="270.27" r="1.5"/>
<circle cx="148.65" cy="283.78" r="1.5"/>
<circle cx="148.65" cy="297.3" r="1.5"/>
<circle cx="148.65" cy="310.81" r="1.5"/>
<circle cx="148.65" cy="324.32" r="1.5"/>
<circle cx="148.65" cy="337.84" r="1.5"/>
<circle cx="148.65" cy="351.35" r="1.5"/>
<circle cx="148.65" cy="364.86" r="1.5"/>
<circle cx="148.65" cy="378.38" r="1.5"/>
<circle cx="148.65" cy="391.89" r="1.5"/>
<circle cx="148.65" cy="405.41" r="1.5"/>
<circle cx="148.65" cy="418.92" r="1.5"/>
<circle cx="148.65" cy="432.43" r="1.5"/>
<circle cx="148.65" cy="445.95" r="1.5"/>
<circle cx="148.65" cy="459.46" r="1.5"/>
<circle cx="148.65" cy="472.97" r="1.5"/>
<circle cx="148.65" cy="486.49" r="1.5"/>
<circle cx="148.65" cy="500" r="1.5"/>
<circle cx="162.16" cy="13.51" r="1.5"/>
<circle cx="162.16" cy="27.03" r="1.5"/>
<circle cx="162.16" cy="40.54" r="1.5"/>
<circle cx="162.16" cy="54.05" r="1.5"/>
<circle cx="162.16" cy="67.57" r="1.5"/>
<circle cx="162.16" cy="81.08" r="1.5"/>
<circle cx="162.16" cy="94.59" r="1.5"/>
<circle cx="162.16" cy="108.11" r="1.5"/>
<circle cx="162.16" cy="121.62" r="1.5"/>
<circle cx="162.16" cy="135.14" r="1.5"/>
<circle cx="162.16" cy="148.65" r="1.5"/>
<circle cx="162.16" cy="162.16" r="1.5"/>
<circle cx="162.16" cy="175.68" r="1.5"/>
<circle cx="162.16" cy="189.19" r="1.5"/>
<circle cx="162.16" cy="202.7" r="1.5"/>
<circle cx="162.16" cy="216.22" r="1.5"/>
<circle cx="162.16" cy="229.73" r="1.5"/>
<circle cx="162.16" cy="243.24" r="1.5"/>
<circle cx="162.16" cy="256.76" r="1.5"/>
<circle cx="162.16" cy="270.27" r="1.5"/>
<circle cx="162.16" cy="283.78" r="1.5"/>
<circle cx="162.16" cy="297.3" r="1.5"/>
<circle cx="162.16" cy="310.81" r="1.5"/>
<circle cx="162.16" cy="324.32" r="1.5"/>
<circle cx="162.16" cy="337.84" r="1.5"/>
<circle cx="162.16" cy="351.35" r="1.5"/>
<circle cx="162.16" cy="364.86" r="1.5"/>
<circle cx="162.16" cy="378.38" r="1.5"/>
<circle cx="162.16" cy="391.89" r="1.5"/>
<circle cx="162.16" cy="405.41" r="1.5"/>
<circle cx="162.16" cy="418.92" r="1.5"/>
<circle cx="162.16" cy="432.43" r="1.5"/>
<circle cx="162.16" cy="445.95" r="1.5"/>
<circle cx="162.16" cy="459.46" r="1.5"/>
<circle cx="162.16" cy="472.97" r="1.5"/>
<circle cx="162.16" cy="486.49" r="1.5"/>
<circle cx="162.16" cy="500" r="1.5"/>
<circle cx="175.68" cy="13.51" r="1.5"/>
<circle cx="175.68" cy="27.03" r="1.5"/>
<circle cx="175.68" cy="40.54" r="1.5"/>
<circle cx="175.68" cy="54.05" r="1.5"/>
<circle cx="175.68" cy="67.57" r="1.5"/>
<circle cx="175.68" cy="81.08" r="1.5"/>
<circle cx="175.68" cy="94.59" r="1.5"/>
<circle cx="175.68" cy="108.11" r="1.5"/>
<circle cx="175.68" cy="121.62" r="1.5"/>
<circle cx="175.68" cy="135.14" r="1.5"/>
<circle cx="175.68" cy="148.65" r="1.5"/>
<circle cx="175.68" cy="162.16" r="1.5"/>
<circle cx="175.68" cy="175.68" r="1.5"/>
<circle cx="175.68" cy="189.19" r="1.5"/>
<circle cx="175.68" cy="202.7" r="1.5"/>
<circle cx="175.68" cy="216.22" r="1.5"/>
<circle cx="175.68" cy="229.73" r="1.5"/>
<circle cx="175.68" cy="243.24" r="1.5"/>
<circle cx="175.68" cy="256.76" r="1.5"/>
<circle cx="175.68" cy="270.27" r="1.5"/>
<circle cx="175.68" cy="283.78" r="1.5"/>
<circle cx="175.68" cy="297.3" r="1.5"/>
<circle cx="175.68" cy="310.81" r="1.5"/>
<circle cx="175.68" cy="324.32" r="1.5"/>
<circle cx="175.68" cy="337.84" r="1.5"/>
<circle cx="175.68" cy="351.35" r="1.5"/>
<circle cx="175.68" cy="364.86" r="1.5"/>
<circle cx="175.68" cy="378.38" r="1.5"/>
<circle cx="175.68" cy="391.89" r="1.5"/>
<circle cx="175.68" cy="405.41" r="1.5"/>
<circle cx="175.68" cy="418.92" r="1.5"/>
<circle cx="175.68" cy="432.43" r="1.5"/>
<circle cx="175.68" cy="445.95" r="1.5"/>
<circle cx="175.68" cy="459.46" r="1.5"/>
<circle cx="175.68" cy="472.97" r="1.5"/>
<circle cx="175.68" cy="486.49" r="1.5"/>
<circle cx="175.68" cy="500" r="1.5"/>
<circle cx="189.19" cy="13.51" r="1.5"/>
<circle cx="189.19" cy="27.03" r="1.5"/>
<circle cx="189.19" cy="40.54" r="1.5"/>
<circle cx="189.19" cy="54.05" r="1.5"/>
<circle cx="189.19" cy="67.57" r="1.5"/>
<circle cx="189.19" cy="81.08" r="1.5"/>
<circle cx="189.19" cy="94.59" r="1.5"/>
<circle cx="189.19" cy="108.11" r="1.5"/>
<circle cx="189.19" cy="121.62" r="1.5"/>
<circle cx="189.19" cy="135.14" r="1.5"/>
<circle cx="189.19" cy="148.65" r="1.5"/>
<circle cx="189.19" cy="162.16" r="1.5"/>
<circle cx="189.19" cy="175.68" r="1.5"/>
<circle cx="189.19" cy="189.19" r="1.5"/>
<circle cx="189.19" cy="202.7" r="1.5"/>
<circle cx="189.19" cy="216.22" r="1.5"/>
<circle cx="189.19" cy="229.73" r="1.5"/>
<circle cx="189.19" cy="243.24" r="1.5"/>
<circle cx="189.19" cy="256.76" r="1.5"/>
<circle cx="189.19" cy="270.27" r="1.5"/>
<circle cx="189.19" cy="283.78" r="1.5"/>
<circle cx="189.19" cy="297.3" r="1.5"/>
<circle cx="189.19" cy="310.81" r="1.5"/>
<circle cx="189.19" cy="324.32" r="1.5"/>
<circle cx="189.19" cy="337.84" r="1.5"/>
<circle cx="189.19" cy="351.35" r="1.5"/>
<circle cx="189.19" cy="364.86" r="1.5"/>
<circle cx="189.19" cy="378.38" r="1.5"/>
<circle cx="189.19" cy="391.89" r="1.5"/>
<circle cx="189.19" cy="405.41" r="1.5"/>
<circle cx="189.19" cy="418.92" r="1.5"/>
<circle cx="189.19" cy="432.43" r="1.5"/>
<circle cx="189.19" cy="445.95" r="1.5"/>
<circle cx="189.19" cy="459.46" r="1.5"/>
<circle cx="189.19" cy="472.97" r="1.5"/>
<circle cx="189.19" cy="486.49" r="1.5"/>
<circle cx="189.19" cy="500" r="1.5"/>
<circle cx="202.7" cy="13.51" r="1.5"/>
<circle cx="202.7" cy="27.03" r="1.5"/>
<circle cx="202.7" cy="40.54" r="1.5"/>
<circle cx="202.7" cy="54.05" r="1.5"/>
<circle cx="202.7" cy="67.57" r="1.5"/>
<circle cx="202.7" cy="81.08" r="1.5"/>
<circle cx="202.7" cy="94.59" r="1.5"/>
<circle cx="202.7" cy="108.11" r="1.5"/>
<circle cx="202.7" cy="121.62" r="1.5"/>
<circle cx="202.7" cy="135.14" r="1.5"/>
<circle cx="202.7" cy="148.65" r="1.5"/>
<circle cx="202.7" cy="162.16" r="1.5"/>
<circle cx="202.7" cy="175.68" r="1.5"/>
<circle cx="202.7" cy="189.19" r="1.5"/>
<circle cx="202.7" cy="202.7" r="1.5"/>
<circle cx="202.7" cy="216.22" r="1.5"/>
<circle cx="202.7" cy="229.73" r="1.5"/>
<circle cx="202.7" cy="243.24" r="1.5"/>
<circle cx="202.7" cy="256.76" r="1.5"/>
<circle cx="202.7" cy="270.27" r="1.5"/>
<circle cx="202.7" cy="283.78" r="1.5"/>
<circle cx="202.7" cy="297.3" r="1.5"/>
<circle cx="202.7" cy="310.81" r="1.5"/>
<circle cx="202.7" cy="324.32" r="1.5"/>
<circle cx="202.7" cy="337.84" r="1.5"/>
<circle cx="202.7" cy="351.35" r="1.5"/>
<circle cx="202.7" cy="364.86" r="1.5"/>
<circle cx="202.7" cy="378.38" r="1.5"/>
<circle cx="202.7" cy="391.89" r="1.5"/>
<circle cx="202.7" cy="405.41" r="1.5"/>
<circle cx="202.7" cy="418.92" r="1.5"/>
<circle cx="202.7" cy="432.43" r="1.5"/>
<circle cx="202.7" cy="445.95" r="1.5"/>
<circle cx="202.7" cy="459.46" r="1.5"/>
<circle cx="202.7" cy="472.97" r="1.5"/>
<circle cx="202.7" cy="486.49" r="1.5"/>
<circle cx="202.7" cy="500" r="1.5"/>
<circle cx="216.22" cy="13.51" r="1.5"/>
<circle cx="216.22" cy="27.03" r="1.5"/>
<circle cx="216.22" cy="40.54" r="1.5"/>
<circle cx="216.22" cy="54.05" r="1.5"/>
<circle cx="216.22" cy="67.57" r="1.5"/>
<circle cx="216.22" cy="81.08" r="1.5"/>
<circle cx="216.22" cy="94.59" r="1.5"/>
<circle cx="216.22" cy="108.11" r="1.5"/>
<circle cx="216.22" cy="121.62" r="1.5"/>
<circle cx="216.22" cy="135.14" r="1.5"/>
<circle cx="216.22" cy="148.65" r="1.5"/>
<circle cx="216.22" cy="162.16" r="1.5"/>
<circle cx="216.22" cy="175.68" r="1.5"/>
<circle cx="216.22" cy="189.19" r="1.5"/>
<circle cx="216.22" cy="202.7" r="1.5"/>
<circle cx="216.22" cy="216.22" r="1.5"/>
<circle cx="216.22" cy="229.73" r="1.5"/>
<circle cx="216.22" cy="243.24" r="1.5"/>
<circle cx="216.22" cy="256.76" r="1.5"/>
<circle cx="216.22" cy="270.27" r="1.5"/>
<circle cx="216.22" cy="283.78" r="1.5"/>
<circle cx="216.22" cy="297.3" r="1.5"/>
<circle cx="216.22" cy="310.81" r="1.5"/>
<circle cx="216.22" cy="324.32" r="1.5"/>
<circle cx="216.22" cy="337.84" r="1.5"/>
<circle cx="216.22" cy="351.35" r="1.5"/>
<circle cx="216.22" cy="364.86" r="1.5"/>
<circle cx="216.22" cy="378.38" r="1.5"/>
<circle cx="216.22" cy="391.89" r="1.5"/>
<circle cx="216.22" cy="405.41" r="1.5"/>
<circle cx="216.22" cy="418.92" r="1.5"/>
<circle cx="216.22" cy="432.43" r="1.5"/>
<circle cx="216.22" cy="445.95" r="1.5"/>
<circle cx="216.22" cy="459.46" r="1.5"/>
<circle cx="216.22" cy="472.97" r="1.5"/>
<circle cx="216.22" cy="486.49" r="1.5"/>
<circle cx="216.22" cy="500" r="1.5"/>
<circle cx="229.73" cy="13.51" r="1.5"/>
<circle cx="229.73" cy="27.03" r="1.5"/>
<circle cx="229.73" cy="40.54" r="1.5"/>
<circle cx="229.73" cy="54.05" r="1.5"/>
<circle cx="229.73" cy="67.57" r="1.5"/>
<circle cx="229.73" cy="81.08" r="1.5"/>
<circle cx="229.73" cy="94.59" r="1.5"/>
<circle cx="229.73" cy="108.11" r="1.5"/>
<circle cx="229.73" cy="121.62" r="1.5"/>
<circle cx="229.73" cy="135.14" r="1.5"/>
<circle cx="229.73" cy="148.65" r="1.5"/>
<circle cx="229.73" cy="162.16" r="1.5"/>
<circle cx="229.73" cy="175.68" r="1.5"/>
<circle cx="229.73" cy="189.19" r="1.5"/>
<circle cx="229.73" cy="202.7" r="1.5"/>
<circle cx="229.73" cy="216.22" r="1.5"/>
<circle cx="229.73" cy="229.73" r="1.5"/>
<circle cx="229.73" cy="243.24" r="1.5"/>
<circle cx="229.73" cy="256.76" r="1.5"/>
<circle cx="229.73" cy="270.27" r="1.5"/>
<circle cx="229.73" cy="283.78" r="1.5"/>
<circle cx="229.73" cy="297.3" r="1.5"/>
<circle cx="229.73" cy="310.81" r="1.5"/>
<circle cx="229.73" cy="324.32" r="1.5"/>
<circle cx="229.73" cy="337.84" r="1.5"/>
<circle cx="229.73" cy="351.35" r="1.5"/>
<circle cx="229.73" cy="364.86" r="1.5"/>
<circle cx="229.73" cy="378.38" r="1.5"/>
<circle cx="229.73" cy="391.89" r="1.5"/>
<circle cx="229.73" cy="405.41" r="1.5"/>
<circle cx="229.73" cy="418.92" r="1.5"/>
<circle cx="229.73" cy="432.43" r="1.5"/>
<circle cx="229.73" cy="445.95" r="1.5"/>
<circle cx="229.73" cy="459.46" r="1.5"/>
<circle cx="229.73" cy="472.97" r="1.5"/>
<circle cx="229.73" cy="486.49" r="1.5"/>
<circle cx="229.73" cy="500" r="1.5"/>
<circle cx="243.24" cy="13.51" r="1.5"/>
<circle cx="243.24" cy="27.03" r="1.5"/>
<circle cx="243.24" cy="40.54" r="1.5"/>
<circle cx="243.24" cy="54.05" r="1.5"/>
<circle cx="243.24" cy="67.57" r="1.5"/>
<circle cx="243.24" cy="81.08" r="1.5"/>
<circle cx="243.24" cy="94.59" r="1.5"/>
<circle cx="243.24" cy="108.11" r="1.5"/>
<circle cx="243.24" cy="121.62" r="1.5"/>
<circle cx="243.24" cy="135.14" r="1.5"/>
<circle cx="243.24" cy="148.65" r="1.5"/>
<circle cx="243.24" cy="162.16" r="1.5"/>
<circle cx="243.24" cy="175.68" r="1.5"/>
<circle cx="243.24" cy="189.19" r="1.5"/>
<circle cx="243.24" cy="202.7" r="1.5"/>
<circle cx="243.24" cy="216.22" r="1.5"/>
<circle cx="243.24" cy="229.73" r="1.5"/>
<circle cx="243.24" cy="243.24" r="1.5"/>
<circle cx="243.24" cy="256.76" r="1.5"/>
<circle cx="243.24" cy="270.27" r="1.5"/>
<circle cx="243.24" cy="283.78" r="1.5"/>
<circle cx="243.24" cy="297.3" r="1.5"/>
<circle cx="243.24" cy="310.81" r="1.5"/>
<circle cx="243.24" cy="324.32" r="1.5"/>
<circle cx="243.24" cy="337.84" r="1.5"/>
<circle cx="243.24" cy="351.35" r="1.5"/>
<circle cx="243.24" cy="364.86" r="1.5"/>
<circle cx="243.24" cy="378.38" r="1.5"/>
<circle cx="243.24" cy="391.89" r="1.5"/>
<circle cx="243.24" cy="405.41" r="1.5"/>
<circle cx="243.24" cy="418.92" r="1.5"/>
<circle cx="243.24" cy="432.43" r="1.5"/>
<circle cx="243.24" cy="445.95" r="1.5"/>
<circle cx="243.24" cy="459.46" r="1.5"/>
<circle cx="243.24" cy="472.97" r="1.5"/>
<circle cx="243.24" cy="486.49" r="1.5"/>
<circle cx="243.24" cy="500" r="1.5"/>
<circle cx="256.76" cy="13.51" r="1.5"/>
<circle cx="256.76" cy="27.03" r="1.5"/>
<circle cx="256.76" cy="40.54" r="1.5"/>
<circle cx="256.76" cy="54.05" r="1.5"/>
<circle cx="256.76" cy="67.57" r="1.5"/>
<circle cx="256.76" cy="81.08" r="1.5"/>
<circle cx="256.76" cy="94.59" r="1.5"/>
<circle cx="256.76" cy="108.11" r="1.5"/>
<circle cx="256.76" cy="121.62" r="1.5"/>
<circle cx="256.76" cy="135.14" r="1.5"/>
<circle cx="256.76" cy="148.65" r="1.5"/>
<circle cx="256.76" cy="162.16" r="1.5"/>
<circle cx="256.76" cy="175.68" r="1.5"/>
<circle cx="256.76" cy="189.19" r="1.5"/>
<circle cx="256.76" cy="202.7" r="1.5"/>
<circle cx="256.76" cy="216.22" r="1.5"/>
<circle cx="256.76" cy="229.73" r="1.5"/>
<circle cx="256.76" cy="243.24" r="1.5"/>
<circle cx="256.76" cy="256.76" r="1.5"/>
<circle cx="256.76" cy="270.27" r="1.5"/>
<circle cx="256.76" cy="283.78" r="1.5"/>
<circle cx="256.76" cy="297.3" r="1.5"/>
<circle cx="256.76" cy="310.81" r="1.5"/>
<circle cx="256.76" cy="324.32" r="1.5"/>
<circle cx="256.76" cy="337.84" r="1.5"/>
<circle cx="256.76" cy="351.35" r="1.5"/>
<circle cx="256.76" cy="364.86" r="1.5"/>
<circle cx="256.76" cy="378.38" r="1.5"/>
<circle cx="256.76" cy="391.89" r="1.5"/>
<circle cx="256.76" cy="405.41" r="1.5"/>
<circle cx="256.76" cy="418.92" r="1.5"/>
<circle cx="256.76" cy="432.43" r="1.5"/>
<circle cx="256.76" cy="445.95" r="1.5"/>
<circle cx="256.76" cy="459.46" r="1.5"/>
<circle cx="256.76" cy="472.97" r="1.5"/>
<circle cx="256.76" cy="486.49" r="1.5"/>
<circle cx="256.76" cy="500" r="1.5"/>
<circle cx="270.27" cy="13.51" r="1.5"/>
<circle cx="270.27" cy="27.03" r="1.5"/>
<circle cx="270.27" cy="40.54" r="1.5"/>
<circle cx="270.27" cy="54.05" r="1.5"/>
<circle cx="270.27" cy="67.57" r="1.5"/>
<circle cx="270.27" cy="81.08" r="1.5"/>
<circle cx="270.27" cy="94.59" r="1.5"/>
<circle cx="270.27" cy="108.11" r="1.5"/>
<circle cx="270.27" cy="121.62" r="1.5"/>
<circle cx="270.27" cy="135.14" r="1.5"/>
<circle cx="270.27" cy="148.65" r="1.5"/>
<circle cx="270.27" cy="162.16" r="1.5"/>
<circle cx="270.27" cy="175.68" r="1.5"/>
<circle cx="270.27" cy="189.19" r="1.5"/>
<circle cx="270.27" cy="202.7" r="1.5"/>
<circle cx="270.27" cy="216.22" r="1.5"/>
<circle cx="270.27" cy="229.73" r="1.5"/>
<circle cx="270.27" cy="243.24" r="1.5"/>
<circle cx="270.27" cy="256.76" r="1.5"/>
<circle cx="270.27" cy="270.27" r="1.5"/>
<circle cx="270.27" cy="283.78" r="1.5"/>
<circle cx="270.27" cy="297.3" r="1.5"/>
<circle cx="270.27" cy="310.81" r="1.5"/>
<circle cx="270.27" cy="324.32" r="1.5"/>
<circle cx="270.27" cy="337.84" r="1.5"/>
<circle cx="270.27" cy="351.35" r="1.5"/>
<circle cx="270.27" cy="364.86" r="1.5"/>
<circle cx="270.27" cy="378.38" r="1.5"/>
<circle cx="270.27" cy="391.89" r="1.5"/>
<circle cx="270.27" cy="405.41" r="1.5"/>
<circle cx="270.27" cy="418.92" r="1.5"/>
<circle cx="270.27" cy="432.43" r="1.5"/>
<circle cx="270.27" cy="445.95" r="1.5"/>
<circle cx="270.27" cy="459.46" r="1.5"/>
<circle cx="270.27" cy="472.97" r="1.5"/>
<circle cx="270.27" cy="486.49" r="1.5"/>
<circle cx="270.27" cy="500" r="1.5"/>
<circle cx="283.78" cy="13.51" r="1.5"/>
<circle cx="283.78" cy="27.03" r="1.5"/>
<circle cx="283.78" cy="40.54" r="1.5"/>
<circle cx="283.78" cy="54.05" r="1.5"/>
<circle cx="283.78" cy="67.57" r="1.5"/>
<circle cx="283.78" cy="81.08" r="1.5"/>
<circle cx="283.78" cy="94.59" r="1.5"/>
<circle cx="283.78" cy="108.11" r="1.5"/>
<circle cx="283.78" cy="121.62" r="1.5"/>
<circle cx="283.78" cy="135.14" r="1.5"/>
<circle cx="283.78" cy="148.65" r="1.5"/>
<circle cx="283.78" cy="162.16" r="1.5"/>
<circle cx="283.78" cy="175.68" r="1.5"/>
<circle cx="283.78" cy="189.19" r="1.5"/>
<circle cx="283.78" cy="202.7" r="1.5"/>
<circle cx="283.78" cy="216.22" r="1.5"/>
<circle cx="283.78" cy="229.73" r="1.5"/>
<circle cx="283.78" cy="243.24" r="1.5"/>
<circle cx="283.78" cy="256.76" r="1.5"/>
<circle cx="283.78" cy="270.27" r="1.5"/>
<circle cx="283.78" cy="283.78" r="1.5"/>
<circle cx="283.78" cy="297.3" r="1.5"/>
<circle cx="283.78" cy="310.81" r="1.5"/>
<circle cx="283.78" cy="324.32" r="1.5"/>
<circle cx="283.78" cy="337.84" r="1.5"/>
<circle cx="283.78" cy="351.35" r="1.5"/>
<circle cx="283.78" cy="364.86" r="1.5"/>
<circle cx="283.78" cy="378.38" r="1.5"/>
<circle cx="283.78" cy="391.89" r="1.5"/>
<circle cx="283.78" cy="405.41" r="1.5"/>
<circle cx="283.78" cy="418.92" r="1.5"/>
<circle cx="283.78" cy="432.43" r="1.5"/>
<circle cx="283.78" cy="445.95" r="1.5"/>
<circle cx="283.78" cy="459.46" r="1.5"/>
<circle cx="283.78" cy="472.97" r="1.5"/>
<circle cx="283.78" cy="486.49" r="1.5"/>
<circle cx="283.78" cy="500" r="1.5"/>
<circle cx="297.3" cy="13.51" r="1.5"/>
<circle cx="297.3" cy="27.03" r="1.5"/>
<circle cx="297.3" cy="40.54" r="1.5"/>
<circle cx="297.3" cy="54.05" r="1.5"/>
<circle cx="297.3" cy="67.57" r="1.5"/>
<circle cx="297.3" cy="81.08" r="1.5"/>
<circle cx="297.3" cy="94.59" r="1.5"/>
<circle cx="297.3" cy="108.11" r="1.5"/>
<circle cx="297.3" cy="121.62" r="1.5"/>
<circle cx="297.3" cy="135.14" r="1.5"/>
<circle cx="297.3" cy="148.65" r="1.5"/>
<circle cx="297.3" cy="162.16" r="1.5"/>
<circle cx="297.3" cy="175.68" r="1.5"/>
<circle cx="297.3" cy="189.19" r="1.5"/>
<circle cx="297.3" cy="202.7" r="1.5"/>
<circle cx="297.3" cy="216.22" r="1.5"/>
<circle cx="297.3" cy="229.73" r="1.5"/>
<circle cx="297.3" cy="243.24" r="1.5"/>
<circle cx="297.3" cy="256.76" r="1.5"/>
<circle cx="297.3" cy="270.27" r="1.5"/>
<circle cx="297.3" cy="283.78" r="1.5"/>
<circle cx="297.3" cy="297.3" r="1.5"/>
<circle cx="297.3" cy="310.81" r="1.5"/>
<circle cx="297.3" cy="324.32" r="1.5"/>
<circle cx="297.3" cy="337.84" r="1.5"/>
<circle cx="297.3" cy="351.35" r="1.5"/>
<circle cx="297.3" cy="364.86" r="1.5"/>
<circle cx="297.3" cy="378.38" r="1.5"/>
<circle cx="297.3" cy="391.89" r="1.5"/>
<circle cx="297.3" cy="405.41" r="1.5"/>
<circle cx="297.3" cy="418.92" r="1.5"/>
<circle cx="297.3" cy="432.43" r="1.5"/>
<circle cx="297.3" cy="445.95" r="1.5"/>
<circle cx="297.3" cy="459.46" r="1.5"/>
<circle cx="297.3" cy="472.97" r="1.5"/>
<circle cx="297.3" cy="486.49" r="1.5"/>
<circle cx="297.3" cy="500" r="1.5"/>
<circle cx="310.81" cy="13.51" r="1.5"/>
<circle cx="310.81" cy="27.03" r="1.5"/>
<circle cx="310.81" cy="40.54" r="1.5"/>
<circle cx="310.81" cy="54.05" r="1.5"/>
<circle cx="310.81" cy="67.57" r="1.5"/>
<circle cx="310.81" cy="81.08" r="1.5"/>
<circle cx="310.81" cy="94.59" r="1.5"/>
<circle cx="310.81" cy="108.11" r="1.5"/>
<circle cx="310.81" cy="121.62" r="1.5"/>
<circle cx="310.81" cy="135.14" r="1.5"/>
<circle cx="310.81" cy="148.65" r="1.5"/>
<circle cx="310.81" cy="162.16" r="1.5"/>
<circle cx="310.81" cy="175.68" r="1.5"/>
<circle cx="310.81" cy="189.19" r="1.5"/>
<circle cx="310.81" cy="202.7" r="1.5"/>
<circle cx="310.81" cy="216.22" r="1.5"/>
<circle cx="310.81" cy="229.73" r="1.5"/>
<circle cx="310.81" cy="243.24" r="1.5"/>
<circle cx="310.81" cy="256.76" r="1.5"/>
<circle cx="310.81" cy="270.27" r="1.5"/>
<circle cx="310.81" cy="283.78" r="1.5"/>
<circle cx="310.81" cy="297.3" r="1.5"/>
<circle cx="310.81" cy="310.81" r="1.5"/>
<circle cx="310.81" cy="324.32" r="1.5"/>
<circle cx="310.81" cy="337.84" r="1.5"/>
<circle cx="310.81" cy="351.35" r="1.5"/>
<circle cx="310.81" cy="364.86" r="1.5"/>
<circle cx="310.81" cy="378.38" r="1.5"/>
<circle cx="310.81" cy="391.89" r="1.5"/>
<circle cx="310.81" cy="405.41" r="1.5"/>
<circle cx="310.81" cy="418.92" r="1.5"/>
<circle cx="310.81" cy="432.43" r="1.5"/>
<circle cx="310.81" cy="445.95" r="1.5"/>
<circle cx="310.81" cy="459.46" r="1.5"/>
<circle cx="310.81" cy="472.97" r="1.5"/>
<circle cx="310.81" cy="486.49" r="1.5"/>
<circle cx="310.81" cy="500" r="1.5"/>
<circle cx="324.32" cy="13.51" r="1.5"/>
<circle cx="324.32" cy="27.03" r="1.5"/>
<circle cx="324.32" cy="40.54" r="1.5"/>
<circle cx="324.32" cy="54.05" r="1.5"/>
<circle cx="324.32" cy="67.57" r="1.5"/>
<circle cx="324.32" cy="81.08" r="1.5"/>
<circle cx="324.32" cy="94.59" r="1.5"/>
<circle cx="324.32" cy="108.11" r="1.5"/>
<circle cx="324.32" cy="121.62" r="1.5"/>
<circle cx="324.32" cy="135.14" r="1.5"/>
<circle cx="324.32" cy="148.65" r="1.5"/>
<circle cx="324.32" cy="162.16" r="1.5"/>
<circle cx="324.32" cy="175.68" r="1.5"/>
<circle cx="324.32" cy="189.19" r="1.5"/>
<circle cx="324.32" cy="202.7" r="1.5"/>
<circle cx="324.32" cy="216.22" r="1.5"/>
<circle cx="324.32" cy="229.73" r="1.5"/>
<circle cx="324.32" cy="243.24" r="1.5"/>
<circle cx="324.32" cy="256.76" r="1.5"/>
<circle cx="324.32" cy="270.27" r="1.5"/>
<circle cx="324.32" cy="283.78" r="1.5"/>
<circle cx="324.32" cy="297.3" r="1.5"/>
<circle cx="324.32" cy="310.81" r="1.5"/>
<circle cx="324.32" cy="324.32" r="1.5"/>
<circle cx="324.32" cy="337.84" r="1.5"/>
<circle cx="324.32" cy="351.35" r="1.5"/>
<circle cx="324.32" cy="364.86" r="1.5"/>
<circle cx="324.32" cy="378.38" r="1.5"/>
<circle cx="324.32" cy="391.89" r="1.5"/>
<circle cx="324.32" cy="405.41" r="1.5"/>
<circle cx="324.32" cy="418.92" r="1.5"/>
<circle cx="324.32" cy="432.43" r="1.5"/>
<circle cx="324.32" cy="445.95" r="1.5"/>
<circle cx="324.32" cy="459.46" r="1.5"/>
<circle cx="324.32" cy="472.97" r="1.5"/>
<circle cx="324.32" cy="486.49" r="1.5"/>
<circle cx="324.32" cy="500" r="1.5"/>
<circle cx="337.84" cy="13.51" r="1.5"/>
<circle cx="337.84" cy="27.03" r="1.5"/>
<circle cx="337.84" cy="40.54" r="1.5"/>
<circle cx="337.84" cy="54.05" r="1.5"/>
<circle cx="337.84" cy="67.57" r="1.5"/>
<circle cx="337.84" cy="81.08" r="1.5"/>
<circle cx="337.84" cy="94.59" r="1.5"/>
<circle cx="337.84" cy="108.11" r="1.5"/>
<circle cx="337.84" cy="121.62" r="1.5"/>
<circle cx="337.84" cy="135.14" r="1.5"/>
<circle cx="337.84" cy="148.65" r="1.5"/>
<circle cx="337.84" cy="162.16" r="1.5"/>
<circle cx="337.84" cy="175.68" r="1.5"/>
<circle cx="337.84" cy="189.19" r="1.5"/>
<circle cx="337.84" cy="202.7" r="1.5"/>
<circle cx="337.84" cy="216.22" r="1.5"/>
<circle cx="337.84" cy="229.73" r="1.5"/>
<circle cx="337.84" cy="243.24" r="1.5"/>
<circle cx="337.84" cy="256.76" r="1.5"/>
<circle cx="337.84" cy="270.27" r="1.5"/>
<circle cx="337.84" cy="283.78" r="1.5"/>
<circle cx="337.84" cy="297.3" r="1.5"/>
<circle cx="337.84" cy="310.81" r="1.5"/>
<circle cx="337.84" cy="324.32" r="1.5"/>
<circle cx="337.84" cy="337.84" r="1.5"/>
<circle cx="337.84" cy="351.35" r="1.5"/>
<circle cx="337.84" cy="364.86" r="1.5"/>
<circle cx="337.84" cy="378.38" r="1.5"/>
<circle cx="337.84" cy="391.89" r="1.5"/>
<circle cx="337.84" cy="405.41" r="1.5"/>
<circle cx="337.84" cy="418.92" r="1.5"/>
<circle cx="337.84" cy="432.43" r="1.5"/>
<circle cx="337.84" cy="445.95" r="1.5"/>
<circle cx="337.84" cy="459.46" r="1.5"/>
<circle cx="337.84" cy="472.97" r="1.5"/>
<circle cx="337.84" cy="486.49" r="1.5"/>
<circle cx="337.84" cy="500" r="1.5"/>
<circle cx="351.35" cy="13.51" r="1.5"/>
<circle cx="351.35" cy="27.03" r="1.5"/>
<circle cx="351.35" cy="40.54" r="1.5"/>
<circle cx="351.35" cy="54.05" r="1.5"/>
<circle cx="351.35" cy="67.57" r="1.5"/>
<circle cx="351.35" cy="81.08" r="1.5"/>
<circle cx="351.35" cy="94.59" r="1.5"/>
<circle cx="351.35" cy="108.11" r="1.5"/>
<circle cx="351.35" cy="121.62" r="1.5"/>
<circle cx="351.35" cy="135.14" r="1.5"/>
<circle cx="351.35" cy="148.65" r="1.5"/>
<circle cx="351.35" cy="162.16" r="1.5"/>
<circle cx="351.35" cy="175.68" r="1.5"/>
<circle cx="351.35" cy="189.19" r="1.5"/>
<circle cx="351.35" cy="202.7" r="1.5"/>
<circle cx="351.35" cy="216.22" r="1.5"/>
<circle cx="351.35" cy="229.73" r="1.5"/>
<circle cx="351.35" cy="243.24" r="1.5"/>
<circle cx="351.35" cy="256.76" r="1.5"/>
<circle cx="351.35" cy="270.27" r="1.5"/>
<circle cx="351.35" cy="283.78" r="1.5"/>
<circle cx="351.35" cy="297.3" r="1.5"/>
<circle cx="351.35" cy="310.81" r="1.5"/>
<circle cx="351.35" cy="324.32" r="1.5"/>
<circle cx="351.35" cy="337.84" r="1.5"/>
<circle cx="351.35" cy="351.35" r="1.5"/>
<circle cx="351.35" cy="364.86" r="1.5"/>
<circle cx="351.35" cy="378.38" r="1.5"/>
<circle cx="351.35" cy="391.89" r="1.5"/>
<circle cx="351.35" cy="405.41" r="1.5"/>
<circle cx="351.35" cy="418.92" r="1.5"/>
<circle cx="351.35" cy="432.43" r="1.5"/>
<circle cx="351.35" cy="445.95" r="1.5"/>
<circle cx="351.35" cy="459.46" r="1.5"/>
<circle cx="351.35" cy="472.97" r="1.5"/>
<circle cx="351.35" cy="486.49" r="1.5"/>
<circle cx="351.35" cy="500" r="1.5"/>
<circle cx="364.86" cy="13.51" r="1.5"/>
<circle cx="364.86" cy="27.03" r="1.5"/>
<circle cx="364.86" cy="40.54" r="1.5"/>
<circle cx="364.86" cy="54.05" r="1.5"/>
<circle cx="364.86" cy="67.57" r="1.5"/>
<circle cx="364.86" cy="81.08" r="1.5"/>
<circle cx="364.86" cy="94.59" r="1.5"/>
<circle cx="364.86" cy="108.11" r="1.5"/>
<circle cx="364.86" cy="121.62" r="1.5"/>
<circle cx="364.86" cy="135.14" r="1.5"/>
<circle cx="364.86" cy="148.65" r="1.5"/>
<circle cx="364.86" cy="162.16" r="1.5"/>
<circle cx="364.86" cy="175.68" r="1.5"/>
<circle cx="364.86" cy="189.19" r="1.5"/>
<circle cx="364.86" cy="202.7" r="1.5"/>
<circle cx="364.86" cy="216.22" r="1.5"/>
<circle cx="364.86" cy="229.73" r="1.5"/>
<circle cx="364.86" cy="243.24" r="1.5"/>
<circle cx="364.86" cy="256.76" r="1.5"/>
<circle cx="364.86" cy="270.27" r="1.5"/>
<circle cx="364.86" cy="283.78" r="1.5"/>
<circle cx="364.86" cy="297.3" r="1.5"/>
<circle cx="364.86" cy="310.81" r="1.5"/>
<circle cx="364.86" cy="324.32" r="1.5"/>
<circle cx="364.86" cy="337.84" r="1.5"/>
<circle cx="364.86" cy="351.35" r="1.5"/>
<circle cx="364.86" cy="364.86" r="1.5"/>
<circle cx="364.86" cy="378.38" r="1.5"/>
<circle cx="364.86" cy="391.89" r="1.5"/>
<circle cx="364.86" cy="405.41" r="1.5"/>
<circle cx="364.86" cy="418.92" r="1.5"/>
<circle cx="364.86" cy="432.43" r="1.5"/>
<circle cx="364.86" cy="445.95" r="1.5"/>
<circle cx="364.86" cy="459.46" r="1.5"/>
<circle cx="364.86" cy="472.97" r="1.5"/>
<circle cx="364.86" cy="486.49" r="1.5"/>
<circle cx="364.86" cy="500" r="1.5"/>
<circle cx="378.38" cy="13.51" r="1.5"/>
<circle cx="378.38" cy="27.03" r="1.5"/>
<circle cx="378.38" cy="40.54" r="1.5"/>
<circle cx="378.38" cy="54.05" r="1.5"/>
<circle cx="378.38" cy="67.57" r="1.5"/>
<circle cx="378.38" cy="81.08" r="1.5"/>
<circle cx="378.38" cy="94.59" r="1.5"/>
<circle cx="378.38" cy="108.11" r="1.5"/>
<circle cx="378.38" cy="121.62" r="1.5"/>
<circle cx="378.38" cy="135.14" r="1.5"/>
<circle cx="378.38" cy="148.65" r="1.5"/>
<circle cx="378.38" cy="162.16" r="1.5"/>
<circle cx="378.38" cy="175.68" r="1.5"/>
<circle cx="378.38" cy="189.19" r="1.5"/>
<circle cx="378.38" cy="202.7" r="1.5"/>
<circle cx="378.38" cy="216.22" r="1.5"/>
<circle cx="378.38" cy="229.73" r="1.5"/>
<circle cx="378.38" cy="243.24" r="1.5"/>
<circle cx="378.38" cy="256.76" r="1.5"/>
<circle cx="378.38" cy="270.27" r="1.5"/>
<circle cx="378.38" cy="283.78" r="1.5"/>
<circle cx="378.38" cy="297.3" r="1.5"/>
<circle cx="378.38" cy="310.81" r="1.5"/>
<circle cx="378.38" cy="324.32" r="1.5"/>
<circle cx="378.38" cy="337.84" r="1.5"/>
<circle cx="378.38" cy="351.35" r="1.5"/>
<circle cx="378.38" cy="364.86" r="1.5"/>
<circle cx="378.38" cy="378.38" r="1.5"/>
<circle cx="378.38" cy="391.89" r="1.5"/>
<circle cx="378.38" cy="405.41" r="1.5"/>
<circle cx="378.38" cy="418.92" r="1.5"/>
<circle cx="378.38" cy="432.43" r="1.5"/>
<circle cx="378.38" cy="445.95" r="1.5"/>
<circle cx="378.38" cy="459.46" r="1.5"/>
<circle cx="378.38" cy="472.97" r="1.5"/>
<circle cx="378.38" cy="486.49" r="1.5"/>
<circle cx="378.38" cy="500" r="1.5"/>
<circle cx="391.89" cy="13.51" r="1.5"/>
<circle cx="391.89" cy="27.03" r="1.5"/>
<circle cx="391.89" cy="40.54" r="1.5"/>
<circle cx="391.89" cy="54.05" r="1.5"/>
<circle cx="391.89" cy="67.57" r="1.5"/>
<circle cx="391.89" cy="81.08" r="1.5"/>
<circle cx="391.89" cy="94.59" r="1.5"/>
<circle cx="391.89" cy="108.11" r="1.5"/>
<circle cx="391.89" cy="121.62" r="1.5"/>
<circle cx="391.89" cy="135.14" r="1.5"/>
<circle cx="391.89" cy="148.65" r="1.5"/>
<circle cx="391.89" cy="162.16" r="1.5"/>
<circle cx="391.89" cy="175.68" r="1.5"/>
<circle cx="391.89" cy="189.19" r="1.5"/>
<circle cx="391.89" cy="202.7" r="1.5"/>
<circle cx="391.89" cy="216.22" r="1.5"/>
<circle cx="391.89" cy="229.73" r="1.5"/>
<circle cx="391.89" cy="243.24" r="1.5"/>
<circle cx="391.89" cy="256.76" r="1.5"/>
<circle cx="391.89" cy="270.27" r="1.5"/>
<circle cx="391.89" cy="283.78" r="1.5"/>
<circle cx="391.89" cy="297.3" r="1.5"/>
<circle cx="391.89" cy="310.81" r="1.5"/>
<circle cx="391.89" cy="324.32" r="1.5"/>
<circle cx="391.89" cy="337.84" r="1.5"/>
<circle cx="391.89" cy="351.35" r="1.5"/>
<circle cx="391.89" cy="364.86" r="1.5"/>
<circle cx="391.89" cy="378.38" r="1.5"/>
<circle cx="391.89" cy="391.89" r="1.5"/>
<circle cx="391.89" cy="405.41" r="1.5"/>
<circle cx="391.89" cy="418.92" r="1.5"/>
<circle cx="391.89" cy="432.43" r="1.5"/>
<circle cx="391.89" cy="445.95" r="1.5"/>
<circle cx="391.89" cy="459.46" r="1.5"/>
<circle cx="391.89" cy="472.97" r="1.5"/>
<circle cx="391.89" cy="486.49" r="1.5"/>
<circle cx="391.89" cy="500" r="1.5"/>
<circle cx="405.41" cy="13.51" r="1.5"/>
<circle cx="405.41" cy="27.03" r="1.5"/>
<circle cx="405.41" cy="40.54" r="1.5"/>
<circle cx="405.41" cy="54.05" r="1.5"/>
<circle cx="405.41" cy="67.57" r="1.5"/>
<circle cx="405.41" cy="81.08" r="1.5"/>
<circle cx="405.41" cy="94.59" r="1.5"/>
<circle cx="405.41" cy="108.11" r="1.5"/>
<circle cx="405.41" cy="121.62" r="1.5"/>
<circle cx="405.41" cy="135.14" r="1.5"/>
<circle cx="405.41" cy="148.65" r="1.5"/>
<circle cx="405.41" cy="162.16" r="1.5"/>
<circle cx="405.41" cy="175.68" r="1.5"/>
<circle cx="405.41" cy="189.19" r="1.5"/>
<circle cx="405.41" cy="202.7" r="1.5"/>
<circle cx="405.41" cy="216.22" r="1.5"/>
<circle cx="405.41" cy="229.73" r="1.5"/>
<circle cx="405.41" cy="243.24" r="1.5"/>
<circle cx="405.41" cy="256.76" r="1.5"/>
<circle cx="405.41" cy="270.27" r="1.5"/>
<circle cx="405.41" cy="283.78" r="1.5"/>
<circle cx="405.41" cy="297.3" r="1.5"/>
<circle cx="405.41" cy="310.81" r="1.5"/>
<circle cx="405.41" cy="324.32" r="1.5"/>
<circle cx="405.41" cy="337.84" r="1.5"/>
<circle cx="405.41" cy="351.35" r="1.5"/>
<circle cx="405.41" cy="364.86" r="1.5"/>
<circle cx="405.41" cy="378.38" r="1.5"/>
<circle cx="405.41" cy="391.89" r="1.5"/>
<circle cx="405.41" cy="405.41" r="1.5"/>
<circle cx="405.41" cy="418.92" r="1.5"/>
<circle cx="405.41" cy="432.43" r="1.5"/>
<circle cx="405.41" cy="445.95" r="1.5"/>
<circle cx="405.41" cy="459.46" r="1.5"/>
<circle cx="405.41" cy="472.97" r="1.5"/>
<circle cx="405.41" cy="486.49" r="1.5"/>
<circle cx="405.41" cy="500" r="1.5"/>
<circle cx="418.92" cy="13.51" r="1.5"/>
<circle cx="418.92" cy="27.03" r="1.5"/>
<circle cx="418.92" cy="40.54" r="1.5"/>
<circle cx="418.92" cy="54.05" r="1.5"/>
<circle cx="418.92" cy="67.57" r="1.5"/>
<circle cx="418.92" cy="81.08" r="1.5"/>
<circle cx="418.92" cy="94.59" r="1.5"/>
<circle cx="418.92" cy="108.11" r="1.5"/>
<circle cx="418.92" cy="121.62" r="1.5"/>
<circle cx="418.92" cy="135.14" r="1.5"/>
<circle cx="418.92" cy="148.65" r="1.5"/>
<circle cx="418.92" cy="162.16" r="1.5"/>
<circle cx="418.92" cy="175.68" r="1.5"/>
<circle cx="418.92" cy="189.19" r="1.5"/>
<circle cx="418.92" cy="202.7" r="1.5"/>
<circle cx="418.92" cy="216.22" r="1.5"/>
<circle cx="418.92" cy="229.73" r="1.5"/>
<circle cx="418.92" cy="243.24" r="1.5"/>
<circle cx="418.92" cy="256.76" r="1.5"/>
<circle cx="418.92" cy="270.27" r="1.5"/>
<circle cx="418.92" cy="283.78" r="1.5"/>
<circle cx="418.92" cy="297.3" r="1.5"/>
<circle cx="418.92" cy="310.81" r="1.5"/>
<circle cx="418.92" cy="324.32" r="1.5"/>
<circle cx="418.92" cy="337.84" r="1.5"/>
<circle cx="418.92" cy="351.35" r="1.5"/>
<circle cx="418.92" cy="364.86" r="1.5"/>
<circle cx="418.92" cy="378.38" r="1.5"/>
<circle cx="418.92" cy="391.89" r="1.5"/>
<circle cx="418.92" cy="405.41" r="1.5"/>
<circle cx="418.92" cy="418.92" r="1.5"/>
<circle cx="418.92" cy="432.43" r="1.5"/>
<circle cx="418.92" cy="445.95" r="1.5"/>
<circle cx="418.92" cy="459.46" r="1.5"/>
<circle cx="418.92" cy="472.97" r="1.5"/>
<circle cx="418.92" cy="486.49" r="1.5"/>
<circle cx="418.92" cy="500" r="1.5"/>
<circle cx="432.43" cy="13.51" r="1.5"/>
<circle cx="432.43" cy="27.03" r="1.5"/>
<circle cx="432.43" cy="40.54" r="1.5"/>
<circle cx="432.43" cy="54.05" r="1.5"/>
<circle cx="432.43" cy="67.57" r="1.5"/>
<circle cx="432.43" cy="81.08" r="1.5"/>
<circle cx="432.43" cy="94.59" r="1.5"/>
<circle cx="432.43" cy="108.11" r="1.5"/>
<circle cx="432.43" cy="121.62" r="1.5"/>
<circle cx="432.43" cy="135.14" r="1.5"/>
<circle cx="432.43" cy="148.65" r="1.5"/>
<circle cx="432.43" cy="162.16" r="1.5"/>
<circle cx="432.43" cy="175.68" r="1.5"/>
<circle cx="432.43" cy="189.19" r="1.5"/>
<circle cx="432.43" cy="202.7" r="1.5"/>
<circle cx="432.43" cy="216.22" r="1.5"/>
<circle cx="432.43" cy="229.73" r="1.5"/>
<circle cx="432.43" cy="243.24" r="1.5"/>
<circle cx="432.43" cy="256.76" r="1.5"/>
<circle cx="432.43" cy="270.27" r="1.5"/>
<circle cx="432.43" cy="283.78" r="1.5"/>
<circle cx="432.43" cy="297.3" r="1.5"/>
<circle cx="432.43" cy="310.81" r="1.5"/>
<circle cx="432.43" cy="324.32" r="1.5"/>
<circle cx="432.43" cy="337.84" r="1.5"/>
<circle cx="432.43" cy="351.35" r="1.5"/>
<circle cx="432.43" cy="364.86" r="1.5"/>
<circle cx="432.43" cy="378.38" r="1.5"/>
<circle cx="432.43" cy="391.89" r="1.5"/>
<circle cx="432.43" cy="405.41" r="1.5"/>
<circle cx="432.43" cy="418.92" r="1.5"/>
<circle cx="432.43" cy="432.43" r="1.5"/>
<circle cx="432.43" cy="445.95" r="1.5"/>
<circle cx="432.43" cy="459.46" r="1.5"/>
<circle cx="432.43" cy="472.97" r="1.5"/>
<circle cx="432.43" cy="486.49" r="1.5"/>
<circle cx="432.43" cy="500" r="1.5"/>
<circle cx="445.95" cy="13.51" r="1.5"/>
<circle cx="445.95" cy="27.03" r="1.5"/>
<circle cx="445.95" cy="40.54" r="1.5"/>
<circle cx="445.95" cy="54.05" r="1.5"/>
<circle cx="445.95" cy="67.57" r="1.5"/>
<circle cx="445.95" cy="81.08" r="1.5"/>
<circle cx="445.95" cy="94.59" r="1.5"/>
<circle cx="445.95" cy="108.11" r="1.5"/>
<circle cx="445.95" cy="121.62" r="1.5"/>
<circle cx="445.95" cy="135.14" r="1.5"/>
<circle cx="445.95" cy="148.65" r="1.5"/>
<circle cx="445.95" cy="162.16" r="1.5"/>
<circle cx="445.95" cy="175.68" r="1.5"/>
<circle cx="445.95" cy="189.19" r="1.5"/>
<circle cx="445.95" cy="202.7" r="1.5"/>
<circle cx="445.95" cy="216.22" r="1.5"/>
<circle cx="445.95" cy="229.73" r="1.5"/>
<circle cx="445.95" cy="243.24" r="1.5"/>
<circle cx="445.95" cy="256.76" r="1.5"/>
<circle cx="445.95" cy="270.27" r="1.5"/>
<circle cx="445.95" cy="283.78" r="1.5"/>
<circle cx="445.95" cy="297.3" r="1.5"/>
<circle cx="445.95" cy="310.81" r="1.5"/>
<circle cx="445.95" cy="324.32" r="1.5"/>
<circle cx="445.95" cy="337.84" r="1.5"/>
<circle cx="445.95" cy="351.35" r="1.5"/>
<circle cx="445.95" cy="364.86" r="1.5"/>
<circle cx="445.95" cy="378.38" r="1.5"/>
<circle cx="445.95" cy="391.89" r="1.5"/>
<circle cx="445.95" cy="405.41" r="1.5"/>
<circle cx="445.95" cy="418.92" r="1.5"/>
<circle cx="445.95" cy="432.43" r="1.5"/>
<circle cx="445.95" cy="445.95" r="1.5"/>
<circle cx="445.95" cy="459.46" r="1.5"/>
<circle cx="445.95" cy="472.97" r="1.5"/>
<circle cx="445.95" cy="486.49" r="1.5"/>
<circle cx="445.95" cy="500" r="1.5"/>
<circle cx="459.46" cy="13.51" r="1.5"/>
<circle cx="459.46" cy="27.03" r="1.5"/>
<circle cx="459.46" cy="40.54" r="1.5"/>
<circle cx="459.46" cy="54.05" r="1.5"/>
<circle cx="459.46" cy="67.57" r="1.5"/>
<circle cx="459.46" cy="81.08" r="1.5"/>
<circle cx="459.46" cy="94.59" r="1.5"/>
<circle cx="459.46" cy="108.11" r="1.5"/>
<circle cx="459.46" cy="121.62" r="1.5"/>
<circle cx="459.46" cy="135.14" r="1.5"/>
<circle cx="459.46" cy="148.65" r="1.5"/>
<circle cx="459.46" cy="162.16" r="1.5"/>
<circle cx="459.46" cy="175.68" r="1.5"/>
<circle cx="459.46" cy="189.19" r="1.5"/>
<circle cx="459.46" cy="202.7" r="1.5"/>
<circle cx="459.46" cy="216.22" r="1.5"/>
<circle cx="459.46" cy="229.73" r="1.5"/>
<circle cx="459.46" cy="243.24" r="1.5"/>
<circle cx="459.46" cy="256.76" r="1.5"/>
<circle cx="459.46" cy="270.27" r="1.5"/>
<circle cx="459.46" cy="283.78" r="1.5"/>
<circle cx="459.46" cy="297.3" r="1.5"/>
<circle cx="459.46" cy="310.81" r="1.5"/>
<circle cx="459.46" cy="324.32" r="1.5"/>
<circle cx="459.46" cy="337.84" r="1.5"/>
<circle cx="459.46" cy="351.35" r="1.5"/>
<circle cx="459.46" cy="364.86" r="1.5"/>
<circle cx="459.46" cy="378.38" r="1.5"/>
<circle cx="459.46" cy="391.89" r="1.5"/>
<circle cx="459.46" cy="405.41" r="1.5"/>
<circle cx="459.46" cy="418.92" r="1.5"/>
<circle cx="459.46" cy="432.43" r="1.5"/>
<circle cx="459.46" cy="445.95" r="1.5"/>
<circle cx="459.46" cy="459.46" r="1.5"/>
<circle cx="459.46" cy="472.97" r="1.5"/>
<circle cx="459.46" cy="486.49" r="1.5"/>
<circle cx="459.46" cy="500" r="1.5"/>
<circle cx="472.97" cy="13.51" r="1.5"/>
<circle cx="472.97" cy="27.03" r="1.5"/>
<circle cx="472.97" cy="40.54" r="1.5"/>
<circle cx="472.97" cy="54.05" r="1.5"/>
<circle cx="472.97" cy="67.57" r="1.5"/>
<circle cx="472.97" cy="81.08" r="1.5"/>
<circle cx="472.97" cy="94.59" r="1.5"/>
<circle cx="472.97" cy="108.11" r="1.5"/>
<circle cx="472.97" cy="121.62" r="1.5"/>
<circle cx="472.97" cy="135.14" r="1.5"/>
<circle cx="472.97" cy="148.65" r="1.5"/>
<circle cx="472.97" cy="162.16" r="1.5"/>
<circle cx="472.97" cy="175.68" r="1.5"/>
<circle cx="472.97" cy="189.19" r="1.5"/>
<circle cx="472.97" cy="202.7" r="1.5"/>
<circle cx="472.97" cy="216.22" r="1.5"/>
<circle cx="472.97" cy="229.73" r="1.5"/>
<circle cx="472.97" cy="243.24" r="1.5"/>
<circle cx="472.97" cy="256.76" r="1.5"/>
<circle cx="472.97" cy="270.27" r="1.5"/>
<circle cx="472.97" cy="283.78" r="1.5"/>
<circle cx="472.97" cy="297.3" r="1.5"/>
<circle cx="472.97" cy="310.81" r="1.5"/>
<circle cx="472.97" cy="324.32" r="1.5"/>
<circle cx="472.97" cy="337.84" r="1.5"/>
<circle cx="472.97" cy="351.35" r="1.5"/>
<circle cx="472.97" cy="364.86" r="1.5"/>
<circle cx="472.97" cy="378.38" r="1.5"/>
<circle cx="472.97" cy="391.89" r="1.5"/>
<circle cx="472.97" cy="405.41" r="1.5"/>
<circle cx="472.97" cy="418.92" r="1.5"/>
<circle cx="472.97" cy="432.43" r="1.5"/>
<circle cx="472.97" cy="445.95" r="1.5"/>
<circle cx="472.97" cy="459.46" r="1.5"/>
<circle cx="472.97" cy="472.97" r="1.5"/>
<circle cx="472.97" cy="486.49" r="1.5"/>
<circle cx="472.97" cy="500" r="1.5"/>
<circle cx="486.49" cy="13.51" r="1.5"/>
<circle cx="486.49" cy="27.03" r="1.5"/>
<circle cx="486.49" cy="40.54" r="1.5"/>
<circle cx="486.49" cy="54.05" r="1.5"/>
<circle cx="486.49" cy="67.57" r="1.5"/>
<circle cx="486.49" cy="81.08" r="1.5"/>
<circle cx="486.49" cy="94.59" r="1.5"/>
<circle cx="486.49" cy="108.11" r="1.5"/>
<circle cx="486.49" cy="121.62" r="1.5"/>
<circle cx="486.49" cy="135.14" r="1.5"/>
<circle cx="486.49" cy="148.65" r="1.5"/>
<circle cx="486.49" cy="162.16" r="1.5"/>
<circle cx="486.49" cy="175.68" r="1.5"/>
<circle cx="486.49" cy="189.19" r="1.5"/>
<circle cx="486.49" cy="202.7" r="1.5"/>
<circle cx="486.49" cy="216.22" r="1.5"/>
<circle cx="486.49" cy="229.73" r="1.5"/>
<circle cx="486.49" cy="243.24" r="1.5"/>
<circle cx="486.49" cy="256.76" r="1.5"/>
<circle cx="486.49" cy="270.27" r="1.5"/>
<circle cx="486.49" cy="283.78" r="1.5"/>
<circle cx="486.49" cy="297.3" r="1.5"/>
<circle cx="486.49" cy="310.81" r="1.5"/>
<circle cx="486.49" cy="324.32" r="1.5"/>
<circle cx="486.49" cy="337.84" r="1.5"/>
<circle cx="486.49" cy="351.35" r="1.5"/>
<circle cx="486.49" cy="364.86" r="1.5"/>
<circle cx="486.49" cy="378.38" r="1.5"/>
<circle cx="486.49" cy="391.89" r="1.5"/>
<circle cx="486.49" cy="405.41" r="1.5"/>
<circle cx="486.49" cy="418.92" r="1.5"/>
<circle cx="486.49" cy="432.43" r="1.5"/>
<circle cx="486.49" cy="445.95" r="1.5"/>
<circle cx="486.49" cy="459.46" r="1.5"/>
<circle cx="486.49" cy="472.97" r="1.5"/>
<circle cx="486.49" cy="486.49" r="1.5"/>
<circle cx="486.49" cy="500" r="1.5"/>
<circle cx="500" cy="13.51" r="1.5"/>
<circle cx="500" cy="27.03" r="1.5"/>
<circle cx="500" cy="40.54" r="1.5"/>
<circle cx="500" cy="54.05" r="1.5"/>
<circle cx="500" cy="67.57" r="1.5"/>
<circle cx="500" cy="81.08" r="1.5"/>
<circle cx="500" cy="94.59" r="1.5"/>
<circle cx="500" cy="108.11" r="1.5"/>
<circle cx="500" cy="121.62" r="1.5"/>
<circle cx="500" cy="135.14" r="1.5"/>
<circle cx="500" cy="148.65" r="1.5"/>
<circle cx="500" cy="162.16" r="1.5"/>
<circle cx="500" cy="175.68" r="1.5"/>
<circle cx="500" cy="189.19" r="1.5"/>
<circle cx="500" cy="202.7" r="1.5"/>
<circle cx="500" cy="216.22" r="1.5"/>
<circle cx="500" cy="229.73" r="1.5"/>
<circle cx="500" cy="243.24" r="1.5"/>
<circle cx="500" cy="256.76" r="1.5"/>
<circle cx="500" cy="270.27" r="1.5"/>
<circle cx="500" cy="283.78" r="1.5"/>
<circle cx="500" cy="297.3" r="1.5"/>
<circle cx="500" cy="310.81" r="1.5"/>
<circle cx="500" cy="324.32" r="1.5"/>
<circle cx="500" cy="337.84" r="1.5"/>
<circle cx="500" cy="351.35" r="1.5"/>
<circle cx="500" cy="364.86" r="1.5"/>
<circle cx="500" cy="378.38" r="1.5"/>
<circle cx="500" cy="391.89" r="1.5"/>
<circle cx="500" cy="405.41" r="1.5"/>
<circle cx="500" cy="418.92" r="1.5"/>
<circle cx="500" cy="432.43" r="1.5"/>
<circle cx="500" cy="445.95" r="1.5"/>
<circle cx="500" cy="459.46" r="1.5"/>
<circle cx="500" cy="472.97" r="1.5"/>
<circle cx="500" cy="486.49" r="1.5"/>
<circle cx="500" cy="500" r="1.5"/>
</svg>
