<?xml version="1.0" encoding="utf-8"?>
<!-- Generator: Adobe Illustrator 25.2.3, SVG Export Plug-In . SVG Version: 6.00 Build 0)  -->
<svg version="1.1" id="Camada_1" xmlns="http://www.w3.org/2000/svg" xmlns:xlink="http://www.w3.org/1999/xlink" x="0px" y="0px"
	 viewBox="0 0 500 500" style="enable-background:new 0 0 500 500;" xml:space="preserve">
<style type="text/css">
	.st0{fill:#FFFFFF;}
</style>
<g>
	<path class="st0" d="M250,446.44c-52.47,0-101.8-20.43-138.91-57.54C73.99,351.8,53.56,302.47,53.56,250s20.43-101.8,57.54-138.91
		S197.53,53.56,250,53.56s101.8,20.43,138.91,57.54c37.1,37.1,57.54,86.43,57.54,138.91s-20.43,101.8-57.54,138.91
		C351.8,426.01,302.47,446.44,250,446.44z M250,54.09C141.97,54.09,54.09,141.97,54.09,250S141.97,445.91,250,445.91
		S445.91,358.03,445.91,250S358.03,54.09,250,54.09z"/>
	<path class="st0" d="M250,422.57c-46.1,0-89.43-17.95-122.02-50.54C95.38,339.43,77.43,296.09,77.43,250
		c0-46.1,17.95-89.43,50.54-122.02C160.57,95.38,203.9,77.43,250,77.43c46.09,0,89.43,17.95,122.02,50.54
		c32.59,32.59,50.54,75.93,50.54,122.02c0,46.09-17.95,89.43-50.54,122.02S296.09,422.57,250,422.57z M250,77.96
		c-94.86,0-172.04,77.18-172.04,172.04c0,94.86,77.18,172.04,172.04,172.04c94.86,0,172.04-77.18,172.04-172.04
		C422.04,155.14,344.86,77.96,250,77.96z"/>
	<path class="st0" d="M252.14,435.11l-0.01-0.53l0.5-0.01l0.01,0.53L252.14,435.11z M245.62,435.08l-0.5-0.01l0.02-0.53l0.5,0.01
		L245.62,435.08z M259.17,434.9l-0.02-0.53l0.5-0.02l0.03,0.53L259.17,434.9z M238.6,434.78l-0.5-0.03l0.03-0.53l0.5,0.03
		L238.6,434.78z M266.18,434.43l-0.05-0.53l0.5-0.04l0.05,0.53L266.18,434.43z M231.59,434.22l-0.5-0.05l0.05-0.53l0.5,0.05
		L231.59,434.22z M273.22,433.68l-0.12-0.52l0.5-0.06l0.07,0.53L273.22,433.68z M224.61,433.4l-0.5-0.07l0.08-0.53l0.49,0.07
		L224.61,433.4z M280.12,432.69l-0.08-0.53l0.49-0.08l0.09,0.53L280.12,432.69z M217.67,432.31l-0.49-0.09l0.09-0.52l0.49,0.09
		L217.67,432.31z M287.04,431.42l-0.11-0.52l0.49-0.1l0.11,0.52L287.04,431.42z M210.77,430.96l-0.49-0.11l0.12-0.52l0.49,0.11
		L210.77,430.96z M293.9,429.89l-0.12-0.52l0.49-0.12l0.13,0.52L293.9,429.89z M203.93,429.35l-0.49-0.12l0.13-0.52l0.48,0.12
		L203.93,429.35z M300.69,428.1l-0.15-0.51l0.48-0.14l0.15,0.51L300.69,428.1z M197.15,427.48l-0.48-0.14l0.15-0.51l0.48,0.14
		L197.15,427.48z M307.42,426.05l-0.17-0.51l0.48-0.16l0.16,0.51L307.42,426.05z M190.44,425.34l-0.48-0.16l0.18-0.5l0.47,0.16
		L190.44,425.34z M314.05,423.75l-0.18-0.5l0.47-0.17l0.19,0.5L314.05,423.75z M183.81,422.94l-0.47-0.18l0.19-0.5l0.47,0.18
		L183.81,422.94z M320.6,421.19l-0.2-0.49l0.46-0.19l0.2,0.49L320.6,421.19z M177.28,420.3l-0.46-0.2l0.21-0.49l0.46,0.2
		L177.28,420.3z M327.03,418.39l-0.22-0.48l0.45-0.21l0.22,0.48L327.03,418.39z M170.85,417.4l-0.46-0.22l0.23-0.48l0.45,0.22
		L170.85,417.4z M333.34,415.35l-0.24-0.47l0.45-0.23l0.24,0.47L333.34,415.35z M164.55,414.27l-0.45-0.23l0.25-0.47l0.44,0.23
		L164.55,414.27z M339.54,412.07l-0.26-0.47l0.43-0.24l0.26,0.46L339.54,412.07z M158.37,410.9l-0.44-0.25l0.27-0.46l0.43,0.25
		L158.37,410.9z M345.61,408.56l-0.28-0.46l0.43-0.26l0.28,0.46L345.61,408.56z M152.32,407.29l-0.43-0.27l0.28-0.45l0.43,0.27
		L152.32,407.29z M351.55,404.82l-0.29-0.45l0.42-0.27l0.29,0.44L351.55,404.82z M146.42,403.46l-0.42-0.28l0.3-0.44l0.41,0.28
		L146.42,403.46z M357.34,400.85l-0.31-0.43l0.41-0.29l0.31,0.43L357.34,400.85z M140.67,399.41l-0.41-0.3l0.32-0.43l0.4,0.3
		L140.67,399.41z M362.98,396.67l-0.32-0.42l0.39-0.3l0.33,0.42L362.98,396.67z M135.08,395.15l-0.39-0.31l0.33-0.42l0.39,0.31
		L135.08,395.15z M368.46,392.27l-0.34-0.41l0.38-0.32l0.34,0.41L368.46,392.27z M129.65,390.67l-0.38-0.33l0.35-0.4l0.38,0.33
		L129.65,390.67z M373.77,387.67l-0.36-0.4l0.37-0.33l0.36,0.39L373.77,387.67z M124.4,386l-0.37-0.34l0.36-0.39l0.37,0.34
		L124.4,386z M378.9,382.88l-0.37-0.38l0.36-0.35l0.37,0.38L378.9,382.88z M119.33,381.14l-0.35-0.35l0.38-0.38l0.35,0.35
		L119.33,381.14z M383.85,377.89l-0.38-0.37l0.35-0.36l0.38,0.37L383.85,377.89z M114.44,376.08l-0.34-0.37l0.39-0.36l0.34,0.37
		L114.44,376.08z M388.61,372.72l-0.4-0.35l0.33-0.38l0.4,0.35L388.61,372.72z M109.76,370.85l-0.33-0.38l0.4-0.35l0.33,0.38
		L109.76,370.85z M393.17,367.37l-0.41-0.34l0.32-0.39l0.41,0.34L393.17,367.37z M105.27,365.45l-0.31-0.39l0.42-0.33l0.31,0.39
		L105.27,365.45z M397.53,361.85l-0.42-0.32l0.3-0.4l0.43,0.32L397.53,361.85z M100.99,359.88l-0.3-0.4l0.43-0.32l0.3,0.4
		L100.99,359.88z M401.68,356.17l-0.44-0.31l0.29-0.41l0.44,0.3L401.68,356.17z M96.93,354.15l-0.28-0.41l0.44-0.3l0.28,0.41
		L96.93,354.15z M405.61,350.33l-0.45-0.29l0.27-0.42l0.45,0.29L405.61,350.33z M93.08,348.28l-0.26-0.42l0.45-0.28l0.27,0.42
		L93.08,348.28z M409.31,344.35l-0.46-0.27l0.25-0.43l0.46,0.27L409.31,344.35z M89.47,342.27l-0.25-0.43l0.46-0.27l0.25,0.43
		L89.47,342.27z M412.79,338.23l-0.47-0.25l0.24-0.44l0.47,0.25L412.79,338.23z M86.08,336.12l-0.23-0.44l0.47-0.25l0.23,0.44
		L86.08,336.12z M416.03,331.98l-0.48-0.24l0.22-0.45l0.48,0.24L416.03,331.98z M82.94,329.86l-0.21-0.45l0.48-0.23l0.22,0.45
		L82.94,329.86z M419.04,325.61l-0.49-0.22l0.21-0.46l0.49,0.22L419.04,325.61z M80.03,323.48l-0.2-0.46l0.49-0.21l0.2,0.46
		L80.03,323.48z M421.79,319.12l-0.49-0.2l0.19-0.47l0.49,0.2L421.79,319.12z M77.37,317l-0.18-0.47l0.5-0.19l0.18,0.47L77.37,317z
		 M424.3,312.54l-0.5-0.18l0.17-0.47l0.5,0.18L424.3,312.54z M74.95,310.4l-0.16-0.47l0.5-0.17l0.16,0.47L74.95,310.4z
		 M426.55,305.85l-0.51-0.16l0.15-0.48l0.51,0.16L426.55,305.85z M72.79,303.72l-0.14-0.48l0.51-0.15l0.14,0.48L72.79,303.72z
		 M428.54,299.11l-0.51-0.14l0.13-0.48l0.51,0.14L428.54,299.11z M70.88,296.95l-0.13-0.49l0.51-0.13l0.13,0.49L70.88,296.95z
		 M430.27,292.3l-0.52-0.12l0.11-0.49l0.52,0.12L430.27,292.3z M69.23,290.12l-0.11-0.49l0.52-0.12l0.11,0.49L69.23,290.12z
		 M431.74,285.43l-0.52-0.1l0.09-0.49l0.52,0.1L431.74,285.43z M67.85,283.23l-0.09-0.49l0.52-0.09l0.09,0.49L67.85,283.23z
		 M432.95,278.5l-0.53-0.08l0.08-0.5l0.53,0.08L432.95,278.5z M66.73,276.29l-0.07-0.5l0.53-0.07l0.07,0.5L66.73,276.29z
		 M433.89,271.54l-0.53-0.06l0.06-0.5l0.53,0.06L433.89,271.54z M65.87,269.32l-0.05-0.5l0.53-0.05l0.05,0.5L65.87,269.32z
		 M434.56,264.54l-0.53-0.04l0.04-0.5l0.53,0.04L434.56,264.54z M65.28,262.31l-0.03-0.5l0.53-0.04l0.03,0.5L65.28,262.31z
		 M434.98,257.53l-0.53-0.02l0.02-0.5l0.53,0.02L434.98,257.53z M64.95,255.29l-0.01-0.48l0.53-0.04l0.01,0.5L64.95,255.29z
		 M435.13,250.5l-0.53,0l0-0.5h0.53L435.13,250.5z M65.41,248.27l-0.53,0l0-0.5l0.53,0L65.41,248.27z M434.57,246.93l-0.01-0.5
		l0.53-0.01l0.01,0.5L434.57,246.93z M65.61,241.26l-0.53-0.02l0.02-0.5l0.53,0.03L65.61,241.26z M434.33,239.92l-0.03-0.5
		l0.53-0.03l0.03,0.49L434.33,239.92z M66.07,234.27l-0.53-0.04l0.04-0.5l0.53,0.04L66.07,234.27z M433.82,232.93l-0.05-0.5
		l0.53-0.05l0.05,0.5L433.82,232.93z M66.79,227.3l-0.53-0.07l0.06-0.5l0.53,0.07L66.79,227.3z M433.05,225.97l-0.07-0.5l0.53-0.07
		l0.07,0.5L433.05,225.97z M67.77,220.36l-0.53-0.09l0.08-0.5l0.53,0.09L67.77,220.36z M432.01,219.04l-0.08-0.49l0.52-0.09
		l0.08,0.5L432.01,219.04z M69.02,213.47l-0.52-0.1l0.1-0.49l0.52,0.11L69.02,213.47z M430.71,212.15l-0.1-0.49l0.52-0.11l0.1,0.49
		L430.71,212.15z M70.53,206.62l-0.52-0.12l0.12-0.49l0.52,0.12L70.53,206.62z M429.15,205.32l-0.12-0.48l0.52-0.13l0.12,0.49
		L429.15,205.32z M72.3,199.84l-0.51-0.14l0.14-0.48l0.51,0.14L72.3,199.84z M427.33,198.55l-0.14-0.48l0.51-0.15l0.14,0.48
		L427.33,198.55z M74.33,193.14l-0.51-0.16l0.16-0.48l0.51,0.17L74.33,193.14z M425.25,191.86l-0.16-0.48l0.5-0.17l0.16,0.48
		L425.25,191.86z M76.62,186.49l-0.5-0.18l0.17-0.47l0.5,0.18L76.62,186.49z M422.92,185.25l-0.18-0.47l0.5-0.19l0.18,0.47
		L422.92,185.25z M79.16,179.94l-0.49-0.2l0.19-0.47l0.49,0.2L79.16,179.94z M420.35,178.76l-0.19-0.46l0.49-0.21l0.19,0.46
		L420.35,178.76z M81.96,173.49l-0.48-0.22l0.21-0.46l0.48,0.22L81.96,173.49z M417.53,172.37l-0.21-0.45l0.48-0.22l0.21,0.45
		L417.53,172.37z M84.99,167.16l-0.48-0.24l0.23-0.45l0.47,0.24L84.99,167.16z M414.46,166.08l-0.23-0.44l0.47-0.24l0.23,0.45
		L414.46,166.08z M88.26,160.95l-0.47-0.26l0.24-0.44l0.47,0.26L88.26,160.95z M411.16,159.92l-0.24-0.43l0.46-0.26l0.25,0.44
		L411.16,159.92z M91.77,154.87l-0.46-0.27l0.26-0.43l0.46,0.28L91.77,154.87z M407.63,153.88l-0.26-0.43l0.45-0.28l0.26,0.43
		L407.63,153.88z M95.51,148.93l-0.45-0.29l0.28-0.42l0.44,0.29L95.51,148.93z M403.87,147.98l-0.28-0.42l0.44-0.3l0.28,0.42
		L403.87,147.98z M99.46,143.14l-0.43-0.31l0.29-0.41l0.43,0.31L99.46,143.14z M399.88,142.22l-0.29-0.41l0.43-0.31l0.29,0.41
		L399.88,142.22z M103.64,137.5l-0.42-0.33l0.31-0.4l0.42,0.33L103.64,137.5z M395.68,136.62l-0.31-0.39l0.42-0.33l0.31,0.4
		L395.68,136.62z M108.02,132.03l-0.41-0.34l0.32-0.39l0.41,0.34L108.02,132.03z M391.27,131.18l-0.32-0.38l0.41-0.34l0.32,0.38
		L391.27,131.18z M112.6,126.72l-0.4-0.36l0.34-0.37l0.4,0.36L112.6,126.72z M386.66,125.91l-0.34-0.37l0.39-0.36l0.34,0.37
		L386.66,125.91z M117.38,121.6l-0.38-0.37l0.35-0.36l0.38,0.37L117.38,121.6z M381.86,120.81l-0.35-0.36l0.38-0.37l0.35,0.36
		L381.86,120.81z M122.35,116.65l-0.37-0.38l0.36-0.35l0.37,0.39L122.35,116.65z M376.86,115.9l-0.37-0.34l0.37-0.39l0.37,0.34
		L376.86,115.9z M127.5,111.91l-0.35-0.4l0.38-0.33l0.35,0.4L127.5,111.91z M371.68,111.18l-0.38-0.33l0.35-0.4l0.38,0.33
		L371.68,111.18z M132.83,107.35l-0.34-0.41l0.39-0.32l0.34,0.41L132.83,107.35z M366.32,106.66l-0.39-0.32l0.33-0.41l0.39,0.32
		L366.32,106.66z M138.32,103.01l-0.32-0.42l0.4-0.3l0.32,0.42L138.32,103.01z M360.8,102.34l-0.4-0.3l0.32-0.43l0.4,0.3
		L360.8,102.34z M143.97,98.88l-0.31-0.44l0.41-0.29l0.3,0.44L143.97,98.88z M355.11,98.23l-0.41-0.29l0.3-0.44l0.41,0.29
		L355.11,98.23z M149.77,94.96l-0.29-0.45l0.42-0.27l0.29,0.45L149.77,94.96z M349.27,94.34l-0.42-0.27l0.29-0.45l0.42,0.27
		L349.27,94.34z M155.71,91.27l-0.27-0.46l0.43-0.26l0.27,0.46L155.71,91.27z M343.29,90.68l-0.43-0.25l0.27-0.46l0.43,0.25
		L343.29,90.68z M161.79,87.81l-0.25-0.47l0.44-0.24l0.25,0.47L161.79,87.81z M337.17,87.24L336.72,87l0.25-0.47l0.44,0.24
		L337.17,87.24z M167.99,84.58l-0.24-0.48l0.45-0.22l0.24,0.48L167.99,84.58z M330.92,84.04l-0.45-0.22l0.23-0.48l0.45,0.22
		L330.92,84.04z M174.31,81.59l-0.22-0.49l0.46-0.2l0.22,0.49L174.31,81.59z M324.55,81.08l-0.46-0.2l0.21-0.49l0.46,0.2
		L324.55,81.08z M180.73,78.84l-0.2-0.49l0.47-0.19l0.2,0.49L180.73,78.84z M318.07,78.36l-0.47-0.18l0.2-0.5l0.47,0.19
		L318.07,78.36z M187.28,76.33l-0.18-0.5l0.47-0.17l0.18,0.5L187.28,76.33z M311.49,75.89l-0.48-0.17l0.18-0.5l0.48,0.17
		L311.49,75.89z M193.91,74.08l-0.16-0.51l0.48-0.15l0.16,0.51L193.91,74.08z M304.82,73.68l-0.48-0.15l0.16-0.51l0.48,0.15
		L304.82,73.68z M200.63,72.08l-0.14-0.51l0.48-0.13l0.14,0.51L200.63,72.08z M298.08,71.73l-0.48-0.13l0.14-0.51l0.49,0.13
		L298.08,71.73z M207.42,70.34l-0.12-0.52l0.49-0.12l0.12,0.52L207.42,70.34z M291.28,70.04l-0.49-0.11l0.12-0.52l0.49,0.11
		L291.28,70.04z M214.27,68.86l-0.1-0.52l0.49-0.1l0.1,0.52L214.27,68.86z M284.42,68.61l-0.49-0.09l0.1-0.52l0.49,0.09
		L284.42,68.61z M221.17,67.64l-0.08-0.53l0.5-0.08l0.08,0.53L221.17,67.64z M277.51,67.44l-0.5-0.07l0.08-0.53l0.5,0.07
		L277.51,67.44z M228.11,66.69l-0.06-0.53l0.5-0.06l0.06,0.53L228.11,66.69z M270.56,66.54l-0.5-0.05l0.06-0.53l0.5,0.05
		L270.56,66.54z M235.08,66l-0.04-0.53l0.5-0.04l0.04,0.53L235.08,66z M263.58,65.9l-0.5-0.04l0.04-0.53l0.5,0.04L263.58,65.9z
		 M242.08,65.57l-0.02-0.53l0.5-0.02l0.02,0.53L242.08,65.57z M256.59,65.52l-0.5-0.02l0.02-0.53l0.5,0.02L256.59,65.52z
		 M249.08,65.41l0-0.53l0.5,0l0,0.53L249.08,65.41z"/>
	<path class="st0" d="M345.67,279.04c12.14-12.14,12.14-31.89,0-44.02c-12.14-12.14-31.88-12.14-44.02,0
		c-1.12,1.11-2.13,2.29-3.03,3.53c-14.52-7.68-31.06-12.03-48.62-12.03c-57.53,0-104.17,46.64-104.17,104.17
		c0,57.53,46.64,104.17,104.17,104.17s104.17-46.64,104.17-104.17c0-17.56-4.34-34.1-12.02-48.61
		C343.38,281.17,344.56,280.16,345.67,279.04z M299.09,238.8c0.88-1.19,1.86-2.33,2.94-3.41c5.96-5.96,13.8-8.94,21.63-8.94
		c7.84,0,15.67,2.98,21.64,8.94c5.96,5.97,8.95,13.8,8.95,21.63c0,7.84-2.99,15.68-8.95,21.64c-1.07,1.07-2.21,2.05-3.4,2.93
		c-11.97,8.9-29.02,7.92-39.87-2.93C291.18,267.81,290.2,250.77,299.09,238.8z"/>
	<path class="st0" d="M342.34,238.35c-5.08-5.08-11.72-7.65-18.4-7.71c-0.2-0.01-0.4-0.01-0.61,0c-6.65,0.07-13.27,2.64-18.34,7.71
		c-0.8,0.8-1.54,1.64-2.21,2.52c-3.61,4.65-5.45,10.23-5.51,15.83c-0.01,0.3-0.01,0.59,0,0.88c0.13,6.58,2.71,13.11,7.72,18.12
		c4.94,4.94,11.37,7.51,17.85,7.7c0.2,0.01,0.41,0.02,0.61,0.02h0.21c5.71,0,11.42-1.83,16.16-5.51c0.87-0.67,1.72-1.41,2.52-2.21
		c5.2-5.2,7.77-12.05,7.71-18.89c0.01-0.11,0.01-0.23,0-0.34C349.92,249.9,347.34,243.36,342.34,238.35z M303.24,241.14
		c0.65-0.84,1.35-1.64,2.12-2.41c4.83-4.83,11.09-7.34,17.43-7.55l-13.71,13.71l-11.27,11.27
		C297.98,250.83,299.8,245.55,303.24,241.14z M297.68,257.04l0.11-0.11l11.73-11.73l13.88-13.88l-0.28,25.18v0.27l-25.33,0.27
		H297.68z M323.65,257.29h0.26l25.18-0.27l-25.72,25.72L323.65,257.29z M305.36,275.32c-4.9-4.9-7.43-11.3-7.56-17.75l25.32-0.27
		l-0.28,25.57C316.48,282.68,310.19,280.15,305.36,275.32z M341.96,275.32c-0.77,0.77-1.57,1.48-2.41,2.12
		c-4.56,3.56-10.05,5.38-15.56,5.44l11.58-11.59l13.95-13.95C349.45,263.87,346.92,270.36,341.96,275.32z M323.66,256.76l0.28-25.59
		c6.54,0.06,13.05,2.59,18.02,7.56c4.9,4.91,7.43,11.3,7.56,17.75L323.66,256.76z"/>
</g>
</svg>
