<?xml version="1.0" encoding="utf-8"?>
<!-- Generator: Adobe Illustrator 25.2.3, SVG Export Plug-In . SVG Version: 6.00 Build 0)  -->
<svg version="1.1" id="Camada_1" xmlns="http://www.w3.org/2000/svg" xmlns:xlink="http://www.w3.org/1999/xlink" x="0px" y="0px"
	 viewBox="0 0 500 500" style="enable-background:new 0 0 500 500;" xml:space="preserve">
<style type="text/css">
	.st0{fill:#FFFFFF;stroke:#FFFFFF;stroke-miterlimit:10;}
	.st1{fill:#FFFFFF;}
	.st2{opacity:0.8;fill:none;stroke:#FFFFFF;stroke-width:4.250000e-02;stroke-miterlimit:10;enable-background:new    ;}
	.st3{opacity:0.7;fill:none;stroke:#FFFFFF;stroke-width:4.250000e-02;stroke-miterlimit:10;enable-background:new    ;}
	.st4{opacity:0.6;fill:none;stroke:#FFFFFF;stroke-width:4.250000e-02;stroke-miterlimit:10;enable-background:new    ;}
	.st5{fill:none;stroke:#FFFFFF;stroke-width:0.1162;stroke-linecap:round;stroke-linejoin:round;}
	
		.st6{fill:none;stroke:#FFFFFF;stroke-width:0.1162;stroke-linecap:round;stroke-linejoin:round;stroke-dasharray:0.1168,0.4673,0.1168,0.4673;}
	
		.st7{fill:none;stroke:#FFFFFF;stroke-width:0.1162;stroke-linecap:round;stroke-linejoin:round;stroke-dasharray:0.1168,0.4673,0.1168,0.4673,0.1168,0.4673;}
	
		.st8{fill:none;stroke:#FFFFFF;stroke-width:0.4246;stroke-linecap:round;stroke-linejoin:round;stroke-miterlimit:10;stroke-dasharray:0.1061,42.4575,0.1061,42.4575,0.1061,42.4575;}
	.st9{opacity:0.5;fill:none;stroke:#FFFFFF;stroke-width:5.370000e-02;stroke-miterlimit:10;enable-background:new    ;}
	.st10{opacity:0.4;fill:none;stroke:#FFFFFF;stroke-width:6.890000e-02;stroke-miterlimit:10;enable-background:new    ;}
	.st11{opacity:0.3;fill:none;stroke:#FFFFFF;stroke-width:8.610000e-02;stroke-miterlimit:10;enable-background:new    ;}
	.st12{opacity:0.2;fill:none;stroke:#FFFFFF;stroke-width:0.1131;stroke-miterlimit:10;enable-background:new    ;}
	.st13{opacity:0.1;fill:none;stroke:#FFFFFF;stroke-width:0.1446;stroke-miterlimit:10;enable-background:new    ;}
	.st14{fill:none;stroke:#FFFFFF;stroke-width:3.950000e-02;stroke-miterlimit:10;}
</style>
<image style="display:none;overflow:visible;enable-background:new    ;" width="1920" height="1081" xlink:href="1F7D8736.jpeg"  transform="matrix(0.9995 0 0 0.9995 -1307.6014 -245.2669)">
</image>
<circle id="Sol" class="st0" cx="-613.9" cy="235.1" r="33"/>
<circle id="Jupiter" class="st1" cx="-540.5" cy="234.9" r="2.6"/>
<g id="Reach_1_">
	<circle class="st2" cx="-613.9" cy="235.1" r="44.5"/>
	<circle class="st2" cx="-613.9" cy="235.1" r="48.5"/>
	<circle class="st2" cx="-613.9" cy="235.1" r="56"/>
	<circle class="st3" cx="-613.9" cy="235.1" r="61.3"/>
	<circle class="st3" cx="-613.9" cy="235.1" r="63.2"/>
	<circle class="st3" cx="-613.9" cy="235.1" r="65.1"/>
	<circle class="st3" cx="-613.9" cy="235.1" r="67"/>
	<circle class="st3" cx="-613.9" cy="235.1" r="69.1"/>
	<circle class="st4" cx="-613.9" cy="235.1" r="73.4"/>
	<circle class="st2" cx="-613.9" cy="235.1" r="41.6"/>
	<circle class="st2" cx="-613.9" cy="235.1" r="41.6"/>
	<g id="poligonos">
		<g>
			<g>
				<polyline class="st5" points="-583.2,181.9 -583.2,181.9 -583.3,181.9 				"/>
				<line class="st6" x1="-583.8" y1="181.9" x2="-584.7" y2="181.9"/>
				<line class="st7" x1="-584.9" y1="181.9" x2="-644.3" y2="181.9"/>
				<polyline class="st5" points="-644.5,181.9 -644.6,181.9 -644.6,181.9 				"/>
				<line class="st6" x1="-644.8" y1="182.4" x2="-645.3" y2="183.2"/>
				<line class="st7" x1="-645.4" y1="183.4" x2="-675.1" y2="234.9"/>
				<polyline class="st5" points="-675.2,234.9 -675.2,235.1 -675.2,235.2 				"/>
				<line class="st6" x1="-675" y1="235.6" x2="-674.5" y2="236.4"/>
				<line class="st7" x1="-674.4" y1="236.6" x2="-644.7" y2="288"/>
				<polyline class="st5" points="-644.6,288.2 -644.6,288.2 -644.5,288.2 				"/>
				<line class="st6" x1="-644" y1="288.2" x2="-643.1" y2="288.2"/>
				<line class="st7" x1="-642.9" y1="288.2" x2="-583.5" y2="288.2"/>
				<polyline class="st5" points="-583.3,288.2 -583.2,288.2 -583.2,288.2 				"/>
				<line class="st6" x1="-583" y1="287.8" x2="-582.5" y2="287"/>
				<line class="st7" x1="-582.4" y1="286.7" x2="-552.7" y2="235.2"/>
				<polyline class="st5" points="-552.6,235.2 -552.6,235.1 -552.6,234.9 				"/>
				<line class="st6" x1="-552.8" y1="234.6" x2="-553.3" y2="233.8"/>
				<line class="st7" x1="-553.4" y1="233.6" x2="-583.1" y2="182.2"/>
			</g>
		</g>
		<g>
			<g>
				<polyline class="st5" points="-560.8,265.8 -560.8,265.8 -560.8,265.7 				"/>
				<line class="st6" x1="-560.8" y1="265.2" x2="-560.8" y2="264.2"/>
				<line class="st7" x1="-560.8" y1="264" x2="-560.8" y2="204.7"/>
				<polyline class="st5" points="-560.8,204.4 -560.8,204.4 -560.8,204.4 				"/>
				<line class="st6" x1="-561.2" y1="204.2" x2="-562" y2="203.7"/>
				<line class="st7" x1="-562.3" y1="203.6" x2="-613.7" y2="173.9"/>
				<polyline class="st5" points="-613.8,173.8 -613.9,173.8 -614,173.8 				"/>
				<line class="st6" x1="-614.4" y1="173.9" x2="-615.2" y2="174.4"/>
				<line class="st7" x1="-615.4" y1="174.6" x2="-666.8" y2="204.2"/>
				<polyline class="st5" points="-667,204.4 -667,204.4 -667,204.4 				"/>
				<line class="st6" x1="-667" y1="204.9" x2="-667" y2="205.9"/>
				<line class="st7" x1="-667" y1="206.1" x2="-667" y2="265.5"/>
				<polyline class="st5" points="-667,265.7 -667,265.8 -667,265.8 				"/>
				<line class="st6" x1="-666.6" y1="266" x2="-665.8" y2="266.5"/>
				<line class="st7" x1="-665.5" y1="266.5" x2="-614.1" y2="296.2"/>
				<polyline class="st5" points="-614,296.3 -613.9,296.3 -613.8,296.3 				"/>
				<line class="st6" x1="-613.4" y1="296.2" x2="-612.6" y2="295.7"/>
				<line class="st7" x1="-612.4" y1="295.5" x2="-561" y2="265.8"/>
			</g>
		</g>
		<g>
			<g>
				<polyline class="st5" points="-673.1,250.8 -673.1,250.9 -673.1,250.9 				"/>
				<line class="st6" x1="-672.8" y1="251.3" x2="-672.1" y2="251.9"/>
				<line class="st7" x1="-672" y1="252.2" x2="-630" y2="294"/>
				<polyline class="st5" points="-629.8,294.2 -629.8,294.2 -629.7,294.2 				"/>
				<line class="st6" x1="-629.3" y1="294.2" x2="-628.4" y2="294"/>
				<line class="st7" x1="-628.1" y1="293.8" x2="-570.8" y2="278.5"/>
				<polyline class="st5" points="-570.6,278.5 -570.5,278.5 -570.5,278.3 				"/>
				<line class="st6" x1="-570.4" y1="278" x2="-570.1" y2="277"/>
				<line class="st7" x1="-570.1" y1="276.8" x2="-554.7" y2="219.4"/>
				<polyline class="st5" points="-554.7,219.2 -554.7,219.2 -554.7,219.2 				"/>
				<line class="st6" x1="-555" y1="218.9" x2="-555.7" y2="218.2"/>
				<line class="st7" x1="-555.9" y1="217.9" x2="-597.8" y2="176.1"/>
				<polyline class="st5" points="-598,175.9 -598,175.9 -598.1,175.9 				"/>
				<line class="st6" x1="-598.5" y1="175.9" x2="-599.4" y2="176.2"/>
				<line class="st7" x1="-599.7" y1="176.2" x2="-657" y2="191.7"/>
				<polyline class="st5" points="-657.2,191.7 -657.3,191.7 -657.3,191.8 				"/>
				<line class="st6" x1="-657.4" y1="192.2" x2="-657.7" y2="193.1"/>
				<line class="st7" x1="-657.7" y1="193.4" x2="-673.1" y2="250.7"/>
			</g>
		</g>
		<g>
			<g>
				<polyline class="st5" points="-629.7,175.9 -629.8,175.9 -629.8,175.9 				"/>
				<line class="st6" x1="-630.1" y1="176.2" x2="-630.8" y2="176.9"/>
				<line class="st7" x1="-631" y1="176.9" x2="-672.9" y2="218.9"/>
				<polyline class="st5" points="-673.1,219.2 -673.1,219.2 -673.1,219.2 				"/>
				<line class="st6" x1="-673" y1="219.7" x2="-672.8" y2="220.6"/>
				<line class="st7" x1="-672.7" y1="220.9" x2="-657.3" y2="278.2"/>
				<polyline class="st5" points="-657.3,278.3 -657.3,278.5 -657.2,278.5 				"/>
				<line class="st6" x1="-656.8" y1="278.5" x2="-655.9" y2="278.8"/>
				<line class="st7" x1="-655.6" y1="278.8" x2="-598.3" y2="294.2"/>
				<polyline class="st5" points="-598.1,294.2 -598,294.2 -598,294.2 				"/>
				<line class="st6" x1="-597.7" y1="294" x2="-597" y2="293.2"/>
				<line class="st7" x1="-596.8" y1="293" x2="-554.9" y2="251.2"/>
				<polyline class="st5" points="-554.7,250.9 -554.7,250.9 -554.7,250.8 				"/>
				<line class="st6" x1="-554.8" y1="250.4" x2="-555" y2="249.6"/>
				<line class="st7" x1="-555.1" y1="249.3" x2="-570.4" y2="191.9"/>
				<polyline class="st5" points="-570.5,191.8 -570.5,191.7 -570.6,191.7 				"/>
				<line class="st6" x1="-571" y1="191.6" x2="-571.9" y2="191.2"/>
				<line class="st7" x1="-572.2" y1="191.2" x2="-629.5" y2="175.9"/>
			</g>
		</g>
	</g>
</g>
<g id="Convert">
	<circle class="st8" cx="-613.9" cy="235.1" r="50.6"/>
	<circle class="st9" cx="-613.9" cy="235.1" r="92.8"/>
	<circle class="st10" cx="-613.9" cy="235.1" r="119.2"/>
	<circle class="st11" cx="-613.9" cy="235.1" r="148.9"/>
	<circle class="st12" cx="-613.9" cy="235.1" r="195.6"/>
	<circle class="st13" cx="-613.9" cy="235.1" r="250"/>
</g>
<g id="adapt">
	<line class="st14" x1="-660.1" y1="154.4" x2="-660.1" y2="315.7"/>
	<line class="st14" x1="-567.7" y1="154.4" x2="-567.7" y2="315.7"/>
	<line class="st14" x1="-614.1" y1="142.2" x2="-614.1" y2="327.8"/>
	<line class="st14" x1="-533.3" y1="188.9" x2="-694.5" y2="188.9"/>
	<line class="st14" x1="-533.3" y1="281.2" x2="-694.5" y2="281.2"/>
	<line class="st14" x1="-521.1" y1="234.9" x2="-706.7" y2="234.9"/>
	<line class="st14" x1="-694.5" y1="188.9" x2="-567.7" y2="315.7"/>
	<line class="st14" x1="-660.1" y1="315.7" x2="-533.3" y2="188.9"/>
	<line class="st14" x1="-694.5" y1="281.2" x2="-567.7" y2="154.4"/>
</g>
</svg>
